<svg width="70" height="70" viewBox="0 0 70 70" fill="none" xmlns="http://www.w3.org/2000/svg">
<path d="M70 43.257C70 41.377 69.4634 39.6076 68.5372 38.1158C67.9278 37.1356 67.1498 36.2748 66.2438 35.5685C67.1159 34.342 67.7079 32.8866 67.9052 31.2944C67.9543 30.9049 67.9768 30.5165 67.9768 30.132C67.9768 27.797 67.1059 25.618 65.6469 23.9553V23.9567C64.5913 22.7503 63.2138 21.8102 61.6354 21.271C61.9685 20.258 62.1456 19.2024 62.147 18.1381V18.1318V18.1304C62.1456 17.0095 61.951 15.8835 61.5489 14.809C61.1479 13.7331 60.5397 12.709 59.7253 11.7991C58.7653 10.7234 57.6115 9.90529 56.3661 9.35992C55.1359 8.8207 53.8151 8.54563 52.4904 8.53934C52.4891 8.53934 52.474 8.53934 52.4515 8.53934V8.53797C52.4478 8.53934 52.4137 8.53674 52.3522 8.54057C52.1963 8.54166 52.0406 8.54686 51.8848 8.55438C51.4298 6.90801 50.5538 5.43268 49.3814 4.26154C48.5004 3.3793 47.4485 2.66549 46.2798 2.17029C45.135 1.68521 43.8746 1.41506 42.5626 1.40371C42.5614 1.40371 42.5374 1.40371 42.496 1.40234H42.4934H42.4808H42.4795H42.4782H42.4769C42.4758 1.40234 42.4744 1.40234 42.4744 1.40234C42.4568 1.40234 42.4304 1.40234 42.3914 1.40371C41.0795 1.41615 39.8215 1.68645 38.6766 2.17029C37.5066 2.66535 36.4561 3.37916 35.5738 4.26154H35.5752C35.3741 4.46252 35.1831 4.67375 34.9996 4.891C34.8173 4.67361 34.6263 4.46252 34.4252 4.26154C33.5442 3.3793 32.4926 2.66549 31.3238 2.17029C30.1789 1.68521 28.9197 1.41506 27.6064 1.40371C27.6064 1.40371 27.5812 1.40371 27.541 1.40234H27.5384H27.526H27.5234H27.5222C27.5222 1.40234 27.5222 1.40234 27.5209 1.40234C27.5196 1.40234 27.5196 1.40234 27.5183 1.40234C27.5019 1.40234 27.4743 1.40234 27.4366 1.40371C26.1246 1.41615 24.8654 1.68645 23.7204 2.17029C22.5518 2.66535 21.5 3.37916 20.619 4.26154C19.4465 5.43268 18.5717 6.90678 18.1156 8.55438C17.9447 8.54426 17.7738 8.53934 17.6016 8.53934V8.53797C17.6016 8.53797 17.589 8.53797 17.5714 8.53674C17.5677 8.53797 17.5375 8.53674 17.4809 8.53934C16.1663 8.54932 14.8556 8.8233 13.6341 9.35869C12.3886 9.90406 11.235 10.7223 10.275 11.7993C9.44686 12.7242 8.82478 13.7736 8.41244 14.8769C7.99914 15.9803 7.7942 17.1403 7.7942 18.2952C7.7942 18.2952 7.7942 18.314 7.7942 18.3441H7.79543C7.80063 19.2943 7.94746 20.2405 8.2265 21.1529C7.07533 21.6682 6.04229 22.397 5.1841 23.2906V23.288C4.33699 24.1677 3.65463 25.2045 3.18213 26.3506C2.70963 27.4968 2.45068 28.7535 2.45068 30.0591C2.45068 30.1748 2.45328 30.2917 2.45697 30.4074C2.50236 31.7004 2.80137 32.9345 3.30271 34.0517C3.50889 34.5104 3.7502 34.9492 4.02158 35.3675C3.00234 36.1091 2.13021 37.0415 1.46303 38.116C0.536621 39.6076 0 41.377 0 43.257C0 44.6005 0.273984 45.8886 0.767813 47.0586C1.26301 48.2287 1.97805 49.2792 2.86029 50.1614H2.85906C3.73871 51.04 4.7857 51.7526 5.95055 52.2475C6.4318 52.4511 6.93328 52.6158 7.45104 52.7415C7.25881 53.5119 7.16078 54.2986 7.15941 55.0828H7.15818V55.1041V55.1052V55.1078C7.15818 56.4501 7.43463 57.7909 7.9826 59.0389C8.53043 60.2855 9.35102 61.4405 10.4319 62.4019C11.3568 63.2249 12.4037 63.8445 13.5045 64.2555C14.5879 64.659 15.7251 64.8625 16.8599 64.8675C16.8775 64.8699 16.8926 64.8699 16.9053 64.8699C16.9077 64.8699 16.9103 64.8699 16.9127 64.8699H16.9153C16.9153 64.8699 16.9153 64.8699 16.9165 64.8699H16.9416V64.8688C17.8288 64.8675 18.7149 64.7418 19.5718 64.498C19.8862 64.9403 20.2353 65.3564 20.6188 65.7396V65.7384C21.4998 66.6218 22.5515 67.3356 23.7203 67.8308C24.8627 68.3135 26.1194 68.5848 27.4277 68.5962C27.4553 68.5974 27.4805 68.5988 27.5207 68.5988H27.5219C27.5231 68.5988 27.5231 68.5988 27.5231 68.5988C27.5521 68.5988 27.5658 68.5974 27.5658 68.5974C28.8929 68.5925 30.1659 68.3197 31.3234 67.8308C32.4922 67.3356 33.5439 66.622 34.4248 65.7396C34.6259 65.5386 34.8169 65.3274 34.9992 65.1088C35.1827 65.3274 35.3737 65.5386 35.5748 65.7396C36.4556 66.6218 37.5076 67.3356 38.6762 67.8308C39.8173 68.3135 41.074 68.5848 42.3835 68.5962C42.4111 68.5974 42.4363 68.5988 42.4752 68.5988C42.4752 68.5988 42.4752 68.5988 42.4763 68.5988C42.4777 68.5988 42.4777 68.5988 42.4777 68.5988C42.4789 68.5988 42.4789 68.5988 42.4789 68.5988C42.5065 68.5988 42.5204 68.5974 42.5204 68.5974C43.8475 68.5925 45.1218 68.3197 46.2792 67.8308C47.4478 67.3356 48.4997 66.622 49.3808 65.7384V65.7396C49.764 65.3564 50.1133 64.9403 50.4276 64.498C51.2935 64.743 52.1869 64.8699 53.0842 64.8699C53.0842 64.8699 53.0854 64.8699 53.0868 64.8699C53.0919 64.8699 53.0929 64.8699 53.0968 64.8699C53.1206 64.8699 53.1345 64.8688 53.1356 64.8688C54.2705 64.8625 55.409 64.6601 56.4948 64.2541C57.5956 63.8445 58.6425 63.2249 59.5674 62.4019C60.6482 61.4405 61.4688 60.2855 62.0167 59.0389C62.5596 57.7996 62.8361 56.4714 62.8399 55.1392H62.8411C62.8411 55.1191 62.8411 55.1103 62.8411 55.1103V55.1052C62.8411 54.3122 62.7419 53.5193 62.5484 52.7413C63.066 52.6157 63.5675 52.4509 64.0489 52.2474C65.2139 51.7523 66.2607 51.0397 67.1404 50.1613H67.1392C68.0213 49.2792 68.7364 48.2285 69.2316 47.0585C69.726 45.8884 70 44.6005 70 43.257ZM33.9615 34.1194C33.2451 33.8744 32.5012 33.75 31.742 33.75C31.0371 33.75 30.3383 33.8568 29.661 34.068L29.6346 34.0781C28.7059 34.4011 27.8009 34.5632 26.944 34.5632C25.4311 34.5632 24.1176 34.0619 23.1462 33.1167C22.2677 32.261 21.7651 31.0897 21.7651 29.9022C21.7664 28.844 22.1547 27.8185 22.8874 26.9388C23.2544 26.499 23.1953 25.843 22.7567 25.4761C22.5708 25.3202 22.3345 25.2347 22.0906 25.2347C21.7829 25.2347 21.4912 25.3705 21.2939 25.6068C20.242 26.8647 19.6867 28.3502 19.6879 29.901C19.6879 31.6452 20.4192 33.3594 21.6948 34.6035C23.0396 35.9181 24.902 36.642 26.9467 36.642C28.0273 36.642 29.156 36.4409 30.287 36.05C30.7595 35.9018 31.2484 35.8277 31.7423 35.8277C32.5128 35.8277 33.2756 36.015 33.9618 36.3719V45.3335H28.4573C27.8842 45.3335 27.4194 45.7997 27.4194 46.3728C27.4194 46.9446 27.8842 47.4108 28.4573 47.4108H33.9618V58.8356C33.9618 59.6927 33.7946 60.5246 33.4779 61.2936C33.4742 61.3013 33.4703 61.3062 33.4666 61.3139C33.2227 61.9007 32.8936 62.4423 32.4964 62.9248C32.4875 62.9374 32.4775 62.9475 32.4688 62.9575C32.411 63.0267 32.3533 63.0945 32.2942 63.1598C32.2413 63.2189 32.1861 63.2743 32.1307 63.3307C32.113 63.3496 32.0955 63.3697 32.0767 63.3887L32.0753 63.3898C32.0629 63.4024 32.0502 63.4125 32.0376 63.4251C31.9761 63.4866 31.9119 63.5483 31.8478 63.6061C31.8114 63.6388 31.7748 63.6701 31.7384 63.7015C31.697 63.7379 31.6556 63.7745 31.6129 63.8095C31.55 63.8611 31.4859 63.91 31.4206 63.9603C31.4043 63.9729 31.388 63.9855 31.3716 63.9981C30.9593 64.3072 30.5082 64.566 30.0295 64.7697C29.8385 64.8501 29.6436 64.9205 29.4451 64.9833C29.4413 64.9846 29.4401 64.9846 29.4375 64.9859C29.3508 65.0122 29.2641 65.0374 29.1761 65.06C29.1584 65.0649 29.1421 65.0699 29.1257 65.0736C29.0505 65.0939 28.9751 65.1089 28.8996 65.1264C28.8694 65.1327 28.8405 65.1403 28.8103 65.1466C28.7462 65.1591 28.6809 65.1693 28.6156 65.1818C28.5741 65.1881 28.5339 65.1968 28.4912 65.2019C28.4335 65.212 28.3745 65.2171 28.3165 65.2246C28.2688 65.2309 28.2197 65.2371 28.172 65.2422C28.1118 65.2485 28.0528 65.2522 27.9923 65.256C27.9446 65.2598 27.8969 65.2649 27.8491 65.2674C27.7547 65.2723 27.6593 65.2737 27.5637 65.2737C27.5498 65.2737 27.5361 65.2749 27.5223 65.2749C27.5071 65.2749 27.4909 65.2737 27.4745 65.2737C27.3815 65.2737 27.2885 65.2723 27.1968 65.2674C27.1466 65.2649 27.0975 65.2598 27.0472 65.256C26.9907 65.2522 26.9317 65.2485 26.8737 65.2422C26.8235 65.2371 26.7745 65.2296 26.7241 65.2246C26.6677 65.2172 26.6098 65.2109 26.5532 65.2019C26.5106 65.1968 26.4678 65.1881 26.4251 65.1805C26.361 65.1693 26.2983 65.1592 26.2354 65.1466C26.2039 65.1403 26.1725 65.1316 26.141 65.1253C26.0669 65.1089 25.9927 65.0926 25.9198 65.0736C25.9023 65.0687 25.8835 65.0637 25.8658 65.0586C25.7791 65.0359 25.6938 65.0121 25.6095 64.9857C25.6046 64.9845 25.5995 64.9831 25.5958 64.9819C25.3985 64.9204 25.2049 64.85 25.0164 64.7696C24.5362 64.566 24.0864 64.3071 23.673 63.9979C23.6555 63.9854 23.6391 63.9703 23.6214 63.9576C23.5573 63.9087 23.4946 63.8608 23.4329 63.8094C23.3864 63.7704 23.3412 63.7302 23.2947 63.6913C23.2632 63.6637 23.2293 63.6359 23.1979 63.6071C23.1212 63.5366 23.0446 63.4638 22.9692 63.3895C22.9679 63.3871 22.9666 63.3858 22.9653 63.3846C22.8573 63.2765 22.753 63.1635 22.6525 63.0465C22.6361 63.0264 22.6186 63.0077 22.6022 62.9874C22.2793 62.603 21.9978 62.1807 21.7689 61.7258C21.7652 61.7181 21.7589 61.7094 21.7539 61.7005C21.3166 60.8209 21.0829 59.8456 21.0829 58.8353C21.0829 58.0661 21.255 57.2305 21.5693 56.4828C21.9162 55.657 22.4288 54.9444 23.0521 54.4242C23.2657 54.247 23.3965 53.997 23.4216 53.7205C23.4469 53.4439 23.3625 53.175 23.1853 52.9614C22.988 52.7252 22.6965 52.5896 22.3874 52.5896C22.1449 52.5896 21.9085 52.675 21.7226 52.8296C20.8441 53.5622 20.129 54.5488 19.6528 55.6811C19.2306 56.6902 19.0069 57.7809 19.0055 58.8354C19.0055 59.597 19.1074 60.351 19.3071 61.0836C19.1964 61.1277 19.0833 61.1703 18.969 61.208C18.9401 61.218 18.9087 61.2283 18.8798 61.237C18.8083 61.2597 18.7379 61.2811 18.6662 61.3012C18.6211 61.3137 18.5757 61.3263 18.5294 61.3389C18.4728 61.3527 18.4162 61.3665 18.3585 61.3791C18.3055 61.393 18.2528 61.4042 18.2001 61.4144C18.1486 61.4257 18.0971 61.4345 18.0443 61.4444C17.989 61.4546 17.9338 61.4633 17.8771 61.4721C17.8243 61.4797 17.7715 61.4871 17.7188 61.4934C17.666 61.4997 17.612 61.5071 17.5592 61.5135C17.4951 61.5184 17.4322 61.5235 17.3694 61.5274C17.3254 61.5311 17.2828 61.5348 17.2387 61.5374C17.132 61.5425 17.0238 61.5462 16.9158 61.5462C15.34 61.5462 13.8205 60.9669 12.6417 59.9188C11.2693 58.6973 10.4839 56.9428 10.4826 55.1055C10.4826 55.0087 10.484 54.9132 10.4889 54.8178C10.5129 54.2674 10.6096 53.7194 10.7755 53.1865C10.7829 53.1627 10.7892 53.1375 10.7982 53.1124C10.8006 53.101 10.8057 53.0897 10.8094 53.0797C10.8359 52.9993 10.8635 52.9176 10.8938 52.8372C10.895 52.8333 10.8962 52.831 10.8987 52.8271C10.9401 52.7166 10.9854 52.6072 11.0344 52.4966C11.0395 52.4866 11.0446 52.4765 11.0482 52.4665C11.0996 52.3533 11.1538 52.2415 11.2129 52.1284C11.2142 52.1258 11.2154 52.1246 11.2154 52.1246C11.458 51.6596 11.7571 51.2248 12.1101 50.8277C12.4909 50.3992 12.4519 49.742 12.0235 49.3612C11.8337 49.1914 11.5887 49.0986 11.3347 49.0986C11.0381 49.0986 10.7542 49.2268 10.5581 49.448C10.4966 49.5159 10.4375 49.5863 10.3785 49.6567C10.2841 49.6731 10.2251 49.6818 10.1761 49.6868C10.0944 49.6944 9.99004 49.6969 9.76377 49.6969C9.75871 49.6969 9.75379 49.6969 9.74873 49.6969C9.74764 49.6969 9.74627 49.6969 9.74504 49.6969C9.63443 49.6969 9.52506 49.693 9.41568 49.6881C9.40953 49.6868 9.40188 49.6868 9.39559 49.6855C9.29387 49.6805 9.19324 49.6729 9.09398 49.6617C9.07895 49.6617 9.06254 49.6579 9.0475 49.6567C8.95576 49.6467 8.86525 49.6353 8.77475 49.6214C8.75834 49.6189 8.7433 49.6163 8.72826 49.6139C8.63652 49.5987 8.54602 49.5837 8.45674 49.5649C8.44676 49.5623 8.43787 49.5599 8.42789 49.5573C8.33109 49.5372 8.23676 49.5159 8.14256 49.4919C8.14119 49.4908 8.13996 49.4908 8.13873 49.4908C7.8333 49.4115 7.53676 49.3098 7.24896 49.1879C6.77154 48.9855 6.32283 48.7254 5.91186 48.4187C5.89422 48.4062 5.87795 48.3923 5.86031 48.3785C5.79619 48.3296 5.73344 48.2817 5.67301 48.2303C5.62789 48.1938 5.58387 48.1548 5.53984 48.1159C5.50594 48.0882 5.47203 48.0582 5.43936 48.0292C5.36143 47.9577 5.28486 47.8859 5.21062 47.8118C5.13516 47.7363 5.06229 47.6584 4.99078 47.5805C4.97561 47.5628 4.96057 47.5452 4.94416 47.5277C4.89139 47.4673 4.83861 47.407 4.7883 47.3467C4.74564 47.2939 4.70545 47.2411 4.66402 47.1884C4.6427 47.1607 4.62 47.1331 4.5999 47.1054C4.54193 47.0288 4.48793 46.9521 4.43393 46.8729C4.4301 46.8667 4.42654 46.8616 4.42271 46.8565C4.19139 46.5135 3.99164 46.1478 3.82949 45.7644C3.71137 45.4831 3.61211 45.1927 3.53418 44.8935C3.53172 44.8836 3.52789 44.8734 3.52543 44.8635C3.5041 44.7805 3.48646 44.6975 3.4676 44.612C3.46268 44.5919 3.45748 44.5706 3.45365 44.5479C3.43861 44.4738 3.42604 44.3983 3.41346 44.3229C3.4084 44.2914 3.40088 44.2613 3.39705 44.2299C3.38693 44.1595 3.37818 44.0891 3.36943 44.0188C3.36574 43.9811 3.36068 43.9459 3.35686 43.9083C3.34947 43.8353 3.34441 43.7626 3.34045 43.6896C3.33799 43.6545 3.33307 43.6193 3.3317 43.584C3.32678 43.4773 3.32418 43.3678 3.32418 43.2573C3.32418 43.1053 3.3291 42.9532 3.34045 42.8037C3.34674 42.7019 3.35932 42.6013 3.37189 42.5007C3.37709 42.453 3.38078 42.4065 3.38707 42.3599C3.40457 42.2279 3.4285 42.0972 3.45488 41.9679C3.45871 41.9527 3.45994 41.9377 3.46254 41.9226C3.49262 41.7844 3.52652 41.6462 3.56549 41.5117C3.56686 41.5054 3.56809 41.4977 3.56932 41.4928C3.60814 41.3583 3.6508 41.2265 3.69742 41.0944C3.70111 41.0856 3.70248 41.078 3.70617 41.0692C3.7502 40.9448 3.80051 40.8242 3.85191 40.7035C3.85957 40.6871 3.86449 40.6708 3.87201 40.6558C3.92232 40.5401 3.97879 40.4271 4.03676 40.3152C4.04687 40.295 4.05562 40.2737 4.06561 40.2536C4.13479 40.123 4.20889 39.9948 4.28682 39.8691C4.36352 39.7459 4.44404 39.6252 4.52689 39.5085C4.9417 38.933 5.44811 38.4291 6.02492 38.0167C6.03627 38.008 6.04625 37.9992 6.0576 37.9917C6.0777 37.9779 6.09902 37.9653 6.11912 37.9515C6.33773 37.8019 6.564 37.6636 6.80025 37.5418L6.80285 37.5392C6.81023 37.5355 6.81789 37.5316 6.82418 37.529C6.90334 37.4876 6.98373 37.4499 7.06289 37.4135C7.10691 37.3934 7.14957 37.3733 7.19496 37.3532C7.19865 37.3532 7.20234 37.3494 7.20617 37.3482C8.01309 36.9975 8.87004 36.8178 9.76363 36.8178C11.2227 36.8178 12.5963 37.2942 13.7386 38.1951C14.0012 38.4829 14.8445 39.3676 16.1037 40.2586C16.9821 40.8796 17.8846 41.3771 18.788 41.7353C19.9417 42.194 21.098 42.4266 22.2265 42.4266C22.7984 42.4266 23.2646 41.9604 23.2646 41.3872C23.2646 40.8141 22.7984 40.3491 22.2265 40.3491C21.3631 40.3491 20.4646 40.1658 19.5535 39.805C18.2364 39.2822 17.1268 38.4742 16.4281 37.8885C16.0311 37.5543 15.7218 37.2577 15.5333 37.0679C15.4328 36.9649 15.3549 36.8832 15.3033 36.8266L15.2381 36.7537L15.2016 36.7123C15.1852 36.6934 15.1677 36.6758 15.1475 36.6606L15.1048 36.6242C13.5993 35.4103 11.7042 34.7404 9.76377 34.7404C9.17328 34.7404 8.58006 34.8033 7.99818 34.9277C7.86748 34.8146 7.74553 34.6951 7.62617 34.5733C7.58215 34.5305 7.53949 34.4866 7.4967 34.4413C7.46033 34.4011 7.4252 34.3609 7.38855 34.3207C7.35711 34.2843 7.32334 34.2466 7.29176 34.2088C7.22395 34.1295 7.15859 34.0479 7.0957 33.9649C7.08313 33.9499 7.07301 33.9348 7.0618 33.9197C7.00766 33.8482 6.95502 33.7752 6.90484 33.7011C6.89486 33.6872 6.88598 33.6734 6.87586 33.6584C6.82445 33.5818 6.77414 33.5051 6.72506 33.4247C6.71877 33.4146 6.71248 33.4046 6.70742 33.3945C6.65602 33.3103 6.6057 33.2249 6.55922 33.1382C6.55553 33.1319 6.55293 33.1268 6.54924 33.1207C6.50016 33.0277 6.45244 32.9346 6.40596 32.8404C6.40596 32.8404 6.40596 32.8378 6.40459 32.8367C6.12432 32.2498 5.93209 31.6201 5.83898 30.9691C5.83789 30.9629 5.83652 30.9566 5.83652 30.9566C5.82258 30.8585 5.81383 30.763 5.80385 30.6689C5.80248 30.6525 5.80016 30.6362 5.79879 30.6198C5.79113 30.5281 5.78621 30.4363 5.78115 30.3434C5.78115 30.3257 5.77869 30.3081 5.77869 30.2905V30.2892C5.77609 30.2125 5.77486 30.1358 5.77486 30.0591C5.77486 29.9524 5.77746 29.8468 5.78252 29.7413C5.78389 29.706 5.78758 29.6696 5.79018 29.6345C5.79523 29.5653 5.79893 29.4961 5.80521 29.4283C5.80904 29.3857 5.81656 29.3455 5.82025 29.3027C5.82791 29.2398 5.83529 29.1783 5.84404 29.1166C5.84924 29.0764 5.85662 29.0362 5.86291 28.9985C5.87426 28.9345 5.88424 28.8704 5.89682 28.8075C5.90297 28.7736 5.91186 28.7397 5.91938 28.707C5.93332 28.6378 5.94836 28.5699 5.96463 28.5021C5.97092 28.477 5.97844 28.4531 5.98473 28.4279C6.00482 28.3525 6.02506 28.2759 6.04762 28.2004C6.05268 28.1866 6.05773 28.1704 6.06266 28.1553C6.08904 28.071 6.11543 27.9881 6.14551 27.9051C6.14674 27.8988 6.15057 27.8927 6.1518 27.8864C6.18447 27.7959 6.21852 27.7054 6.25611 27.6161L6.25734 27.6137C6.33404 27.4251 6.42072 27.2429 6.51492 27.0632C6.51492 27.0632 6.51492 27.0632 6.51629 27.0619C6.56277 26.9727 6.61172 26.8859 6.66203 26.8004C6.66572 26.7929 6.66955 26.7866 6.67338 26.7804C6.72109 26.7012 6.77018 26.6219 6.82035 26.5441C6.8317 26.5278 6.84428 26.5102 6.85563 26.4927C6.89965 26.4273 6.94353 26.362 6.99016 26.2979C7.01654 26.2601 7.04662 26.2238 7.07437 26.1873C7.10705 26.1446 7.1385 26.1006 7.1724 26.0578C7.22764 25.9886 7.28424 25.9208 7.34207 25.8542C7.35082 25.8442 7.35848 25.834 7.366 25.8252C7.43504 25.7473 7.50545 25.6707 7.57709 25.5953C7.57969 25.5939 7.58092 25.5916 7.58201 25.5902C7.67635 25.4934 7.77314 25.4004 7.8724 25.3099C7.89879 25.2862 7.92518 25.2622 7.95279 25.2384C8.16389 25.0524 8.38633 24.8778 8.62148 24.7193C8.63652 24.7106 8.65156 24.7004 8.6666 24.6905C8.91666 24.5246 9.1793 24.3763 9.45328 24.2456C9.45588 24.2444 9.45834 24.243 9.45957 24.243C9.88313 24.042 10.3329 23.8862 10.8017 23.7817C10.8056 23.7805 10.8091 23.7792 10.8131 23.778C11.1951 23.6938 11.5884 23.6422 11.9868 23.6284C12.0597 23.6246 12.1313 23.6246 12.2168 23.6246H12.218C12.5498 23.6246 12.8829 23.6498 13.2083 23.7001C13.2623 23.7077 13.315 23.7127 13.3678 23.7127C13.8843 23.7127 14.3142 23.3419 14.3946 22.8316C14.4813 22.2662 14.0916 21.7346 13.5261 21.6466C13.0938 21.5801 12.6552 21.5461 12.2179 21.5461C12.1462 21.5461 12.0734 21.5474 12.0017 21.5499C11.9552 21.4707 11.9126 21.389 11.871 21.3086C11.8245 21.2221 11.7805 21.1352 11.7391 21.0472C11.724 21.0145 11.709 20.9831 11.6951 20.9492C11.6523 20.855 11.6108 20.7619 11.5731 20.6664C11.5618 20.6376 11.5504 20.6074 11.5404 20.5785C11.5027 20.4805 11.4676 20.3825 11.4349 20.2818C11.4248 20.2529 11.416 20.2215 11.4073 20.1927C11.3772 20.0934 11.3482 19.9953 11.323 19.896C11.3129 19.8596 11.3054 19.8256 11.2967 19.7892C11.2753 19.6949 11.2526 19.6007 11.235 19.5053C11.2249 19.4576 11.2186 19.4109 11.2098 19.3645C11.1959 19.279 11.1822 19.1948 11.1709 19.1093C11.1621 19.0402 11.1558 18.971 11.1496 18.9006C11.1433 18.8364 11.1357 18.7723 11.1319 18.7071C11.1232 18.5726 11.1181 18.437 11.1181 18.3V18.2974C11.1181 16.8131 11.6294 15.3831 12.5621 14.2382C12.5722 14.2244 12.5835 14.2118 12.5947 14.1992C12.6462 14.1365 12.699 14.0736 12.7544 14.0119C12.7883 13.9742 12.8235 13.939 12.8573 13.9027C12.9013 13.855 12.9454 13.8071 12.9906 13.7619C14.1946 12.5504 15.8408 11.8617 17.56 11.8604C17.5626 11.8604 17.5675 11.8604 17.5712 11.8604C17.682 11.8617 17.7912 11.8642 17.9018 11.8705C17.937 11.8729 17.9722 11.8755 18.0061 11.8779C18.0902 11.8842 18.1758 11.8918 18.26 11.9006C18.2913 11.9043 18.3228 11.9081 18.3554 11.9119C18.4661 11.9256 18.578 11.942 18.6885 11.9609C18.6897 11.962 18.6922 11.962 18.6948 11.962C18.8129 11.9833 18.931 12.0086 19.0492 12.0374C20.0621 12.2787 21.0071 12.7639 21.8038 13.4601C22.025 13.7114 22.9826 14.7759 24.223 15.8757C25.0586 16.6145 25.8542 17.2215 26.5881 17.679C27.0494 17.9655 27.4765 18.1892 27.8924 18.3627C28.385 18.5675 28.8375 18.6907 29.276 18.7384C29.315 18.7435 29.3527 18.7459 29.3917 18.7459C29.922 18.7459 30.3643 18.3488 30.4233 17.821C30.4536 17.5458 30.3756 17.2744 30.2023 17.0581C30.0288 16.8408 29.7812 16.705 29.5047 16.6749C29.2722 16.6498 28.9908 16.5692 28.6891 16.4436C28.1687 16.2287 27.5466 15.8579 26.8894 15.3717C25.9118 14.649 24.9918 13.7806 24.3924 13.1788C24.052 12.8368 23.7754 12.5427 23.6045 12.3568C23.5115 12.2551 23.4387 12.1746 23.3896 12.1205L23.3356 12.0578L23.0238 12.3342L23.3205 12.0415L23.2941 12.0113L23.259 11.9749L23.2274 11.9473C22.5929 11.3806 21.8828 10.9143 21.1125 10.5613C21.1653 9.98938 21.2934 9.43908 21.4858 8.9201C21.4921 8.90369 21.4983 8.88865 21.5046 8.87238C21.531 8.80197 21.5586 8.73293 21.5875 8.66375C21.5988 8.63736 21.6114 8.61098 21.6228 8.58445C21.6479 8.52662 21.6729 8.46879 21.6993 8.41355C21.7157 8.37842 21.7332 8.34574 21.7496 8.3117C21.7736 8.26275 21.7973 8.2149 21.8225 8.16609C21.8427 8.12836 21.8652 8.09063 21.8866 8.05166C21.9093 8.01023 21.9319 7.96744 21.957 7.92588C21.981 7.88309 22.0073 7.84303 22.0325 7.80146C22.0552 7.7651 22.0765 7.72736 22.1004 7.691C22.1293 7.64588 22.1595 7.60186 22.1896 7.55646C22.2109 7.52502 22.2322 7.49357 22.2549 7.46227C22.2888 7.41332 22.3254 7.36424 22.3617 7.31516C22.3806 7.29 22.3981 7.26498 22.4171 7.23969C22.461 7.18445 22.505 7.12908 22.549 7.07645C22.5641 7.05881 22.5766 7.04117 22.5904 7.02367C22.6445 6.96078 22.6986 6.90049 22.7526 6.83883C22.7603 6.83117 22.7676 6.82242 22.7753 6.8149C22.838 6.74572 22.9022 6.67791 22.9689 6.61133C23.0444 6.53723 23.1209 6.46436 23.1988 6.39271C23.2215 6.37262 23.2453 6.35375 23.268 6.33365C23.322 6.28471 23.3773 6.23686 23.4339 6.18914C23.4866 6.14635 23.542 6.10369 23.5971 6.06227C23.6224 6.04217 23.6488 6.02084 23.6752 6.00061C23.7505 5.94414 23.8284 5.89014 23.9064 5.836C23.9127 5.83217 23.9177 5.82725 23.924 5.82465C24.2658 5.59332 24.6315 5.39371 25.0161 5.23156C25.2008 5.15363 25.3918 5.08322 25.5854 5.02293C25.5942 5.0191 25.6018 5.01664 25.6092 5.01404C25.6922 4.98889 25.7764 4.9651 25.8594 4.94254C25.8795 4.93748 25.8996 4.93242 25.9209 4.92613C25.9926 4.90727 26.0654 4.89223 26.1384 4.87582C26.171 4.86953 26.2024 4.86078 26.2352 4.85449C26.298 4.84191 26.3609 4.8318 26.425 4.82059C26.4677 4.8132 26.5104 4.80418 26.5531 4.79803C26.6097 4.78914 26.6675 4.78408 26.724 4.7767C26.7743 4.77041 26.8234 4.76275 26.8736 4.75783C26.9315 4.75277 26.9917 4.74908 27.0497 4.74525C27.0986 4.74156 27.1465 4.7365 27.1966 4.73404C27.291 4.72912 27.3852 4.72775 27.4807 4.72652C27.4947 4.72652 27.5084 4.72652 27.5223 4.72652C27.5386 4.72652 27.5537 4.72652 27.57 4.72775C27.663 4.72775 27.756 4.72912 27.8491 4.73404C27.8992 4.7365 27.9495 4.74156 27.9986 4.74525C28.0565 4.74908 28.1142 4.75291 28.1709 4.75783C28.2223 4.76412 28.2726 4.77041 28.3242 4.7767C28.3795 4.78408 28.436 4.78914 28.4914 4.79803C28.5354 4.80418 28.5793 4.81307 28.6221 4.82182C28.685 4.8318 28.7479 4.84191 28.8094 4.85449C28.8419 4.86078 28.8746 4.86953 28.9086 4.87719C28.9803 4.89223 29.0531 4.90863 29.1248 4.92627C29.1449 4.93256 29.165 4.93762 29.1851 4.94268C29.2693 4.96523 29.3521 4.98916 29.4339 5.01418C29.4427 5.01678 29.4502 5.01924 29.4589 5.02307C29.6525 5.08322 29.8423 5.15363 30.0296 5.2317C30.4128 5.39494 30.7785 5.59359 31.1217 5.82479C31.1255 5.82738 31.1294 5.82971 31.1343 5.83367C31.2134 5.88754 31.2926 5.94291 31.3705 6.00197C31.3957 6.01961 31.4195 6.03971 31.4446 6.05857C31.5 6.10246 31.5565 6.14525 31.6118 6.19051C31.666 6.23453 31.7174 6.28102 31.7702 6.3275C31.7953 6.3502 31.8205 6.37016 31.8469 6.39285C31.9236 6.46449 32.0013 6.53736 32.0754 6.61146C32.1509 6.68693 32.2239 6.76486 32.2954 6.84279C32.3256 6.87547 32.3545 6.91074 32.3835 6.94451C32.4224 6.98854 32.4614 7.03256 32.4979 7.07658C32.8951 7.5592 33.2229 8.10197 33.4668 8.68754C33.4705 8.69383 33.4745 8.70012 33.477 8.70777C33.795 9.47682 33.962 10.3088 33.962 11.1658V34.1194H33.9615ZM66.6686 43.5838C66.666 43.619 66.6623 43.6542 66.6597 43.6881C66.656 43.7622 66.6509 43.8351 66.6434 43.9081C66.6396 43.9444 66.6347 43.9796 66.6308 44.0161C66.622 44.0863 66.6144 44.1594 66.6032 44.2296C66.5995 44.2597 66.5932 44.2899 66.5882 44.3201C66.5756 44.3956 66.5618 44.4734 66.5466 44.5487C66.5429 44.5688 66.5379 44.5891 66.5328 44.6092C66.5152 44.6946 66.4964 44.7801 66.4738 44.8643C66.4725 44.8719 66.4701 44.8807 66.4675 44.8882C66.3895 45.1898 66.2903 45.4813 66.1709 45.764C65.9673 46.2428 65.7072 46.694 65.3991 47.1062C65.3855 47.1251 65.3691 47.1452 65.354 47.1653C65.3075 47.2257 65.2597 47.2872 65.2107 47.3463C65.1705 47.3966 65.1278 47.4443 65.085 47.4934C65.0599 47.5224 65.0347 47.5524 65.0083 47.5814C64.9379 47.6594 64.865 47.7359 64.7909 47.81L64.7895 47.8114C64.7782 47.8214 64.7668 47.8315 64.7556 47.8428C64.6929 47.9056 64.6274 47.9685 64.5622 48.0275C64.5282 48.0578 64.493 48.0878 64.4591 48.1168C64.4164 48.1556 64.3724 48.1934 64.327 48.2311C64.2668 48.2801 64.205 48.3279 64.1437 48.3756C64.1248 48.3896 64.1059 48.4046 64.0871 48.4196C64.0067 48.4787 63.9249 48.5378 63.8421 48.5944C63.8407 48.5944 63.8407 48.5956 63.8395 48.5956C63.4989 48.8257 63.1345 49.0255 62.7512 49.1888C62.4658 49.3094 62.1707 49.41 61.8652 49.4892C61.8626 49.4904 61.86 49.4904 61.8577 49.4917C61.7634 49.5156 61.6692 49.5371 61.575 49.557C61.5649 49.5596 61.5537 49.5621 61.5435 49.5647C61.4543 49.5834 61.3625 49.5986 61.272 49.6136C61.257 49.6161 61.2419 49.6187 61.2269 49.6211C61.1364 49.6351 61.0446 49.6463 60.9529 49.6564C60.9377 49.6576 60.9227 49.6615 60.9063 49.6615C60.807 49.6728 60.7065 49.6803 60.6059 49.6853C60.5984 49.6865 60.5909 49.6865 60.5846 49.6879C60.4754 49.6928 60.366 49.6966 60.2554 49.6966C60.254 49.6966 60.254 49.6966 60.2528 49.6966C60.2465 49.6966 60.2414 49.6966 60.2364 49.6966C60.1245 49.6966 60.0417 49.6966 59.9813 49.6941C59.9033 49.6928 59.8682 49.6891 59.8114 49.6802C59.7625 49.6727 59.6996 49.6613 59.6117 49.6451C59.5563 49.5783 59.4999 49.513 59.4419 49.4478C59.2458 49.2266 58.9619 49.0983 58.6653 49.0983C58.4116 49.0983 58.1664 49.1913 57.9767 49.361C57.5482 49.7417 57.5092 50.3989 57.89 50.8274C58.2431 51.2246 58.5409 51.6581 58.7835 52.1206C58.7848 52.1232 58.7861 52.1257 58.7871 52.1283C58.8462 52.2414 58.9004 52.3544 58.9519 52.4675C58.957 52.4764 58.9606 52.4863 58.9645 52.4951C59.0148 52.6069 59.0613 52.72 59.1039 52.8318C59.1053 52.8331 59.1053 52.8357 59.1065 52.8369C59.114 52.8596 59.1216 52.8809 59.1292 52.9036C59.1544 52.9727 59.1806 53.0431 59.2033 53.1135V53.1148C59.4132 53.7607 59.5175 54.4345 59.5175 55.1053C59.5164 56.827 58.825 58.476 57.6111 59.681C57.5293 59.7614 57.4453 59.8406 57.3584 59.9187C57.2843 59.984 57.2089 60.0481 57.1322 60.1109C55.9885 61.037 54.5621 61.546 53.0843 61.546C52.9762 61.546 52.8694 61.5423 52.7614 61.5373C52.7186 61.5347 52.676 61.531 52.6332 61.5284C52.569 61.5233 52.5049 61.5196 52.4396 61.5133C52.388 61.5071 52.3377 61.4995 52.2863 61.4945C52.2309 61.4868 52.1745 61.4794 52.1191 61.4718C52.0663 61.463 52.0136 61.4541 51.9608 61.4442C51.9054 61.434 51.85 61.4241 51.796 61.4141C51.7459 61.4027 51.6955 61.3928 51.6465 61.3814C51.5849 61.3664 51.5233 61.3524 51.4618 61.336C51.4202 61.3247 51.3788 61.3136 51.3386 61.3022C51.2606 61.2809 51.1827 61.2569 51.106 61.2331C51.0821 61.2242 51.0583 61.2179 51.0344 61.2091C50.9201 61.1714 50.8058 61.1288 50.6926 61.0834C50.8925 60.3508 50.9942 59.5968 50.9942 58.8352C50.9928 58.0083 50.8509 57.136 50.582 56.3128C50.1221 54.9091 49.3253 53.704 48.2772 52.8292C47.6789 52.3304 47.004 51.9433 46.2701 51.6793C45.4859 51.3979 44.6288 51.2546 43.724 51.2546C43.1509 51.2546 42.6847 51.7196 42.6847 52.2926C42.6847 52.8656 43.1509 53.3306 43.7227 53.3306C44.5936 53.3318 45.3827 53.5067 46.0715 53.8509C46.9637 54.2983 47.7039 55.0474 48.2129 56.0201C48.6616 56.8746 48.9178 57.9001 48.9166 58.8352C48.9166 59.8455 48.6829 60.8206 48.2456 61.7004C48.2405 61.708 48.2355 61.718 48.2305 61.7257C48.0018 62.1805 47.7203 62.6041 47.3974 62.9885C47.381 63.0074 47.3647 63.0263 47.3471 63.0451C47.2466 63.1633 47.1409 63.2788 47.0317 63.3882C47.0303 63.3882 47.0303 63.3882 47.0303 63.3882V63.3893C47.0177 63.4018 47.0051 63.412 46.9926 63.4245C46.9297 63.4861 46.8669 63.5477 46.8016 63.6055C46.7663 63.6382 46.7286 63.6695 46.6922 63.701C46.6508 63.7373 46.6104 63.774 46.5678 63.809C46.5037 63.8605 46.4395 63.9095 46.3755 63.9598C46.3591 63.9724 46.3429 63.9849 46.3266 63.9975C45.9132 64.3066 45.4632 64.5654 44.9832 64.7692C44.7921 64.8496 44.5974 64.92 44.3989 64.9827C44.3963 64.9841 44.3938 64.9841 44.3912 64.9853C44.3058 65.0117 44.2179 65.0369 44.1298 65.0594C44.1134 65.0643 44.0971 65.0694 44.0807 65.0731C44.0053 65.0933 43.9299 65.1084 43.8545 65.1259C43.8244 65.1321 43.7943 65.1398 43.7653 65.1461C43.7 65.1585 43.6346 65.1688 43.5705 65.1812C43.5291 65.1875 43.4876 65.1963 43.4462 65.2013C43.3882 65.2114 43.3305 65.2165 43.2715 65.224C43.2225 65.2303 43.1747 65.2366 43.1257 65.2417C43.0667 65.2479 43.0076 65.2516 42.9475 65.2555C42.8996 65.2593 42.8518 65.2644 42.8029 65.2668C42.7086 65.2717 42.6144 65.2731 42.5188 65.2731C42.5052 65.2731 42.4914 65.2743 42.4774 65.2743C42.461 65.2743 42.446 65.2731 42.4297 65.2731C42.3366 65.2731 42.2424 65.2717 42.1507 65.2668C42.1017 65.2644 42.0514 65.2593 42.0025 65.2555C41.9448 65.2516 41.8868 65.2479 41.829 65.2417C41.7788 65.2366 41.7285 65.2291 41.6794 65.224C41.6216 65.2166 41.565 65.2104 41.5085 65.2013C41.4658 65.1963 41.423 65.1875 41.3803 65.18C41.3163 65.1688 41.2532 65.1587 41.1891 65.1461C41.1577 65.1398 41.1276 65.1311 41.0962 65.1248C41.022 65.1084 40.9478 65.0921 40.8749 65.0731C40.8561 65.0682 40.8386 65.0631 40.8209 65.058C40.7343 65.0354 40.6474 65.0116 40.5634 64.9852C40.5595 64.9839 40.5546 64.9826 40.5508 64.9813C40.3523 64.9198 40.1599 64.8494 39.9701 64.769C39.4913 64.5654 39.0402 64.3065 38.628 63.9974C38.6103 63.9848 38.5928 63.9698 38.5752 63.9571C38.5124 63.9081 38.4483 63.8603 38.3867 63.8088C38.3402 63.7699 38.2949 63.7297 38.2497 63.6907C38.2182 63.6631 38.1843 63.6354 38.1529 63.6065C38.0748 63.5361 37.9982 63.4632 37.924 63.389C37.8485 63.3135 37.7758 63.237 37.704 63.1579C37.6626 63.1127 37.6224 63.0636 37.5822 63.0171C37.5558 62.9857 37.5281 62.9542 37.5018 62.924C37.1046 62.4414 36.7767 61.8985 36.5329 61.313C36.5292 61.3054 36.5252 61.3005 36.5215 61.2928C36.2049 60.5238 36.0377 59.6918 36.0377 58.8347V33.0979C37.3661 33.148 38.526 33.3014 39.4874 33.5527C40.4085 33.7914 41.1537 34.1157 41.7632 34.5405C42.2207 34.8596 42.5914 35.2292 42.9006 35.6728C43.3454 36.3099 43.6621 37.1067 43.9261 38.2553C44.0141 38.6348 44.0896 39.0168 44.1686 39.4215C44.2427 39.7961 44.3194 40.1856 44.406 40.5688C44.572 41.2989 44.7404 41.8495 44.9515 42.3571C45.1525 42.8422 45.385 43.2645 45.6641 43.6453C46.139 44.3 46.7537 44.8304 47.4913 45.2225C48.278 45.6422 49.2017 45.9161 50.3163 46.0593C50.3616 46.0656 50.4056 46.0695 50.4509 46.0695C50.9698 46.0695 51.4123 45.6798 51.4788 45.1621C51.5154 44.8881 51.4411 44.6141 51.2716 44.3955C51.1021 44.1755 50.8568 44.036 50.5828 43.9995C49.585 43.8713 48.8096 43.6212 48.2128 43.2391C47.7791 42.9601 47.4487 42.6209 47.1747 42.1711C46.961 41.8191 46.7826 41.3942 46.6281 40.8689C46.4622 40.3122 46.3403 39.6952 46.2122 39.0417C46.1379 38.6659 46.0614 38.2764 45.9721 37.883C45.8151 37.1894 45.5789 36.2782 45.1403 35.3909C44.8072 34.7199 44.3862 34.1241 43.886 33.6201C43.0403 32.7644 41.9092 32.1146 40.5256 31.6875C39.2714 31.3016 37.8011 31.0817 36.038 31.0214V23.5237H42.0614C42.6345 23.5237 43.1007 23.0561 43.1007 22.4844C43.1007 21.9114 42.6345 21.4452 42.0614 21.4452H36.038V11.1653C36.038 10.3082 36.2052 9.47627 36.5218 8.70723C36.5255 8.69957 36.5295 8.69328 36.5332 8.68699C36.7769 8.10129 37.1049 7.55852 37.5021 7.07604C37.5234 7.05074 37.5461 7.02572 37.5674 7.00057C37.6127 6.94779 37.658 6.89365 37.7057 6.84102C37.7609 6.77936 37.8175 6.72152 37.8752 6.66246C37.8916 6.64605 37.9066 6.62855 37.9243 6.61078C37.9985 6.53559 38.0763 6.46258 38.1542 6.39217C38.1769 6.37207 38.1995 6.3532 38.2222 6.33311C38.2774 6.28416 38.3327 6.23631 38.388 6.18859C38.4422 6.1458 38.4962 6.10314 38.5513 6.06172C38.5777 6.04162 38.603 6.02029 38.6292 6.00006C38.7059 5.94359 38.7825 5.88959 38.8618 5.83545C38.8679 5.83162 38.873 5.8267 38.878 5.8241C39.2212 5.59277 39.5868 5.39316 39.9701 5.23102C40.1561 5.15309 40.3471 5.08268 40.5405 5.02238C40.5494 5.01855 40.5569 5.01609 40.5658 5.0135C40.6462 4.98834 40.7304 4.96455 40.8145 4.94199C40.8347 4.93693 40.8548 4.93187 40.8749 4.92559C40.9478 4.90672 41.0207 4.89168 41.0936 4.87527C41.125 4.86898 41.1577 4.86023 41.189 4.85395C41.2531 4.84137 41.3172 4.83125 41.3801 4.82004C41.4229 4.81266 41.4656 4.80363 41.5084 4.79748C41.5648 4.78859 41.6214 4.78354 41.6793 4.77615C41.7283 4.76986 41.7787 4.76221 41.8288 4.75729C41.8867 4.75223 41.9457 4.74854 42.0048 4.74471C42.0539 4.74102 42.1016 4.73596 42.1505 4.7335C42.2449 4.72857 42.3403 4.72721 42.4359 4.72598C42.4497 4.72598 42.4635 4.72598 42.4773 4.72598C42.4923 4.72598 42.5087 4.72598 42.525 4.72721C42.618 4.72721 42.7111 4.72857 42.8028 4.7335C42.853 4.73596 42.9033 4.74102 42.9535 4.74471C43.0114 4.74854 43.0691 4.75236 43.1256 4.75729C43.1759 4.76357 43.2275 4.76986 43.279 4.77615C43.3342 4.78354 43.3908 4.78859 43.4448 4.79748C43.49 4.80363 43.5328 4.81252 43.5768 4.82127C43.6384 4.83125 43.7012 4.84137 43.7627 4.85395C43.7966 4.86023 43.8294 4.86898 43.862 4.87664C43.9336 4.89168 44.0065 4.90809 44.0781 4.92572C44.0995 4.93201 44.1196 4.93707 44.1396 4.94213C44.2226 4.96469 44.3069 4.98861 44.3885 5.01363C44.396 5.01623 44.4049 5.01869 44.4123 5.02252C44.6071 5.08268 44.7981 5.15309 44.9828 5.23115C45.3674 5.39439 45.7331 5.59305 46.0761 5.82424C46.0798 5.82684 46.0837 5.82916 46.0875 5.83312C46.1679 5.88699 46.247 5.94236 46.3251 6.00143C46.3489 6.01906 46.374 6.03916 46.3978 6.05803C46.4543 6.10191 46.511 6.14471 46.565 6.18996C46.619 6.23398 46.6718 6.28047 46.7246 6.32695C46.7497 6.34965 46.776 6.36961 46.8001 6.3923C46.878 6.46395 46.9546 6.53682 47.03 6.61092C47.0967 6.67764 47.1607 6.74545 47.2248 6.81449C47.2261 6.81572 47.2261 6.81709 47.2273 6.81832C47.289 6.88477 47.3493 6.95395 47.4071 7.02312C47.4195 7.03816 47.4309 7.0532 47.4422 7.06701C47.4899 7.12361 47.5366 7.18145 47.5817 7.23928C47.6005 7.26443 47.617 7.28959 47.6357 7.31338C47.672 7.36246 47.7087 7.41141 47.7438 7.46172C47.7665 7.49316 47.7879 7.52584 47.8092 7.55715C47.8393 7.60117 47.8696 7.64519 47.8983 7.69031C47.9222 7.72668 47.9448 7.76441 47.9675 7.80215C47.9927 7.84234 48.0178 7.88391 48.0416 7.92533C48.0668 7.96689 48.0893 8.00955 48.1132 8.05344C48.1346 8.09008 48.1559 8.12768 48.1761 8.16541C48.2013 8.21436 48.2251 8.26467 48.2502 8.31361C48.2666 8.34629 48.283 8.37896 48.2993 8.41287C48.3257 8.46947 48.351 8.5273 48.376 8.58637C48.3874 8.61139 48.3999 8.63668 48.4112 8.66416C48.4401 8.73211 48.4678 8.80252 48.4954 8.87293C48.5004 8.88934 48.5067 8.90438 48.513 8.91941C48.7052 9.4384 48.8335 9.98883 48.8862 10.562C48.116 10.9151 47.4059 11.3801 46.77 11.9468C46.3426 12.3288 46.3062 12.9873 46.687 13.4147C46.8843 13.6347 47.1658 13.7616 47.4623 13.7616C47.7174 13.7616 47.9626 13.6672 48.1536 13.4977C48.9541 12.7825 49.9104 12.2862 50.9372 12.0399C51.1723 11.9845 51.4097 11.9419 51.6473 11.9118C51.6749 11.9079 51.7027 11.9055 51.7303 11.9029C51.8182 11.8917 51.9073 11.8842 51.9966 11.8791C52.028 11.8765 52.062 11.874 52.0946 11.8714C52.2051 11.8664 52.3169 11.8615 52.4288 11.8615C52.4325 11.8615 52.4364 11.8615 52.4389 11.8615C54.1581 11.8627 55.8056 12.5503 57.0083 13.7616C57.0887 13.842 57.1679 13.9262 57.2459 14.0129C57.31 14.0856 57.3728 14.1586 57.4331 14.2315C57.4897 14.3019 57.5449 14.3723 57.5977 14.4439C57.6015 14.4489 57.6053 14.4527 57.609 14.4576C57.6581 14.5243 57.7045 14.5908 57.7511 14.6587C57.7586 14.6699 57.7675 14.6813 57.7749 14.6926C57.8163 14.7531 57.854 14.8134 57.8916 14.8749C57.9056 14.895 57.918 14.9138 57.9306 14.9353C57.9621 14.9867 57.9923 15.0395 58.0223 15.0936C58.0387 15.1238 58.0575 15.1541 58.0738 15.1843C58.0977 15.2269 58.119 15.271 58.1417 15.3148C58.163 15.3552 58.1857 15.3978 58.2058 15.4393C58.2221 15.4732 58.2385 15.5083 58.2548 15.5423C58.2773 15.5938 58.3025 15.6454 58.3239 15.6982C58.3364 15.7271 58.3477 15.756 58.3603 15.7849C58.3841 15.8427 58.408 15.9004 58.4294 15.9582C58.4395 15.9859 58.4482 16.0136 58.4594 16.0412C58.4808 16.1014 58.501 16.1604 58.5211 16.2209C58.5298 16.2485 58.5375 16.2763 58.5462 16.3039C58.5651 16.3642 58.584 16.4245 58.6003 16.4861C58.6091 16.5188 58.6167 16.5515 58.6254 16.584C58.6406 16.6394 58.6544 16.6947 58.667 16.7512C58.6771 16.7965 58.6871 16.8429 58.6958 16.8894C58.7047 16.9324 58.7135 16.975 58.7222 17.0189C58.7336 17.0856 58.7435 17.1534 58.7537 17.2214C58.7573 17.2427 58.7612 17.2665 58.7649 17.2892C58.8026 17.5669 58.8215 17.8496 58.8215 18.1375C58.8215 18.2695 58.8164 18.4014 58.8077 18.5347C58.8064 18.5636 58.8038 18.5924 58.8025 18.6226C58.7925 18.7484 58.7799 18.8753 58.7623 19.0023C58.7586 19.0311 58.7535 19.06 58.7497 19.0888C58.7346 19.1945 58.717 19.2987 58.6957 19.4031C58.6895 19.4371 58.6832 19.471 58.677 19.5049C58.6506 19.6218 58.6216 19.7385 58.5915 19.8554C58.5802 19.8994 58.5676 19.9435 58.5551 19.9875C58.5249 20.0906 58.4935 20.1923 58.4583 20.2941C58.4444 20.3368 58.4281 20.3796 58.4143 20.4224C58.379 20.5203 58.3413 20.616 58.3025 20.7114C58.2861 20.7516 58.2698 20.7918 58.2522 20.8306C58.2032 20.9451 58.1505 21.0607 58.0951 21.1738C58.08 21.2039 58.0636 21.2339 58.0474 21.2654C57.9921 21.3748 57.9318 21.4854 57.8702 21.5934C57.7143 21.8623 57.5434 22.1237 57.3526 22.375C57.3274 22.404 57.3035 22.4354 57.2821 22.4667C57.0899 22.7119 56.8887 22.9418 56.684 23.1479C56.3094 23.5262 55.7804 23.9134 55.1559 24.2688C54.2209 24.8004 53.203 25.1925 52.5129 25.4263C52.1196 25.5608 51.7903 25.6588 51.5843 25.7179C51.4724 25.748 51.3844 25.7733 51.3241 25.7883L51.2437 25.8084C50.687 25.9442 50.3439 26.5072 50.4783 27.0627C50.5915 27.5315 51.0062 27.8569 51.4875 27.8569C51.5703 27.8569 51.6533 27.8469 51.7338 27.8279C51.8431 27.8015 52.8422 27.5514 54.1014 27.0562C54.8655 26.7548 55.5655 26.4242 56.1813 26.0747C56.9919 25.6148 57.6379 25.1348 58.1593 24.6095C58.3241 24.4448 58.4849 24.2688 58.6407 24.0867C58.799 24.0893 58.9586 24.0993 59.1183 24.112C59.1244 24.1145 59.132 24.1157 59.1396 24.1157C59.2225 24.1231 59.2803 24.1281 59.3142 24.1307C59.3168 24.1321 59.3193 24.1321 59.3205 24.1321C59.3306 24.1321 59.3394 24.1346 59.3432 24.1346H59.3444H59.3456C59.3796 24.1396 59.4136 24.1447 59.4474 24.1497C59.5052 24.1585 59.5643 24.1648 59.6221 24.1749C60.7028 24.3608 61.7083 24.8347 62.5364 25.5435C62.5451 25.5508 62.5528 25.5585 62.5615 25.5659C62.6132 25.6099 62.6633 25.6564 62.7136 25.7029C62.7312 25.7193 62.7499 25.7355 62.7689 25.752C62.8067 25.7883 62.8444 25.8274 62.8821 25.8663C62.9098 25.8926 62.9374 25.9192 62.9638 25.948C62.9851 25.9693 63.004 25.992 63.0241 26.0134C63.0655 26.0574 63.1071 26.1014 63.1472 26.1465V26.1478C63.254 26.2683 63.3548 26.3941 63.4513 26.5235C63.4614 26.5385 63.4728 26.5523 63.4852 26.5675C63.5205 26.6164 63.5543 26.668 63.5895 26.7171C63.6059 26.7408 63.6234 26.7661 63.6397 26.7912C63.6687 26.8352 63.6963 26.8791 63.7252 26.9243C63.7454 26.957 63.7654 26.9884 63.7855 27.0197C63.8094 27.0601 63.8307 27.1001 63.8546 27.1392C63.876 27.1782 63.8999 27.2172 63.9213 27.2561C63.9402 27.2914 63.9565 27.3265 63.9754 27.3617C63.998 27.4071 64.0231 27.4523 64.0458 27.4987C64.0596 27.5277 64.0722 27.5577 64.086 27.5878C64.1111 27.6406 64.1363 27.6935 64.159 27.7463C64.1689 27.7701 64.1777 27.794 64.189 27.8178C64.2128 27.8782 64.2381 27.9385 64.2619 28C64.2682 28.0177 64.2745 28.0378 64.2821 28.0554C64.3059 28.1221 64.3299 28.1886 64.3524 28.2565C64.3576 28.2703 64.3613 28.2841 64.365 28.2992C64.3889 28.3708 64.4115 28.4437 64.4317 28.5165C64.4342 28.5279 64.4368 28.5379 64.4391 28.5492C64.4604 28.6259 64.4807 28.7014 64.4982 28.7792C64.5008 28.7893 64.502 28.7993 64.5045 28.8093C64.5221 28.8872 64.5384 28.9663 64.5534 29.0444C64.5559 29.0582 64.5571 29.0708 64.5597 29.0832C64.5723 29.1587 64.5861 29.2353 64.5961 29.3121C64.5987 29.3322 64.5999 29.3523 64.6037 29.3712C64.6125 29.4416 64.6201 29.5119 64.6275 29.5823C64.6301 29.6162 64.6324 29.6502 64.6338 29.684C64.6388 29.742 64.6438 29.7984 64.6464 29.8549C64.6502 29.9466 64.6525 30.0384 64.6525 30.1315C64.6525 30.2559 64.6476 30.3815 64.6401 30.5072C64.6324 30.6316 64.6211 30.7585 64.606 30.8841C64.6047 30.8893 64.6036 30.893 64.6036 30.898C64.5922 30.9935 64.5771 31.089 64.5609 31.182C64.5583 31.1971 64.5546 31.211 64.552 31.2247C64.537 31.3127 64.5194 31.3994 64.4993 31.4861C64.4993 31.4899 64.4979 31.4936 64.4967 31.4961C64.2466 32.5794 63.7012 33.5747 62.9258 34.3677C62.9184 34.3752 62.912 34.3815 62.9044 34.389C62.8454 34.4495 62.7838 34.5096 62.7211 34.5676C62.7059 34.5814 62.6909 34.5951 62.6745 34.6102C62.5326 34.7385 62.3854 34.8628 62.231 34.9796C61.5737 34.82 60.904 34.7396 60.234 34.7396C58.295 34.7396 56.3999 35.4095 54.8944 36.6234C54.4495 36.9829 54.3791 37.6388 54.7385 38.0837C54.937 38.3301 55.2312 38.4708 55.5477 38.4708C55.784 38.4708 56.0153 38.389 56.2 38.2407C57.3537 37.3095 58.7498 36.8169 60.2353 36.8169C60.7268 36.8169 61.2143 36.8721 61.688 36.9827C61.8691 37.1235 62.0978 37.2039 62.3304 37.2039C62.3592 37.2039 62.3882 37.2026 62.4183 37.2002C62.6872 37.2969 62.9423 37.4075 63.1786 37.5295C63.1836 37.532 63.1887 37.5345 63.1925 37.5371L63.1962 37.5382V37.5394L63.1988 37.5408C63.435 37.6626 63.6612 37.8008 63.8799 37.9505C63.9 37.9644 63.9213 37.9769 63.9414 37.9907C63.9528 37.9983 63.9628 38.0084 63.9741 38.0158C64.6678 38.5123 65.2611 39.1418 65.7122 39.8683C65.79 39.9941 65.863 40.1222 65.9321 40.2528C65.9459 40.2779 65.9572 40.3044 65.9698 40.3307C66.025 40.4375 66.0778 40.5442 66.1269 40.6524C66.1343 40.6711 66.1419 40.6912 66.1495 40.7088C66.1998 40.8283 66.2488 40.9465 66.2927 41.0683C66.2964 41.0784 66.299 41.0896 66.3029 41.0997C66.3493 41.2292 66.392 41.3587 66.4297 41.4918C66.431 41.4995 66.4323 41.5069 66.4348 41.5145C66.4725 41.6491 66.5064 41.7848 66.5365 41.9217C66.5391 41.9381 66.5416 41.9531 66.5442 41.9694C66.5705 42.0976 66.5943 42.2283 66.612 42.3589C66.6183 42.4055 66.6221 42.4519 66.627 42.4997C66.6396 42.6002 66.6522 42.7008 66.6585 42.8027C66.6698 42.9523 66.6749 43.1043 66.6749 43.2563C66.6761 43.3675 66.6736 43.477 66.6686 43.5838Z" fill="#91FFAE"/>
</svg>
