<svg width="92" height="92" viewBox="0 0 92 92" fill="none" xmlns="http://www.w3.org/2000/svg">
<g clip-path="url(#clip0_74_80)">
<path d="M34.5 80C53.5538 80 69 64.5538 69 45.5C69 26.4462 53.5538 11 34.5 11C15.4462 11 0 26.4462 0 45.5C0 64.5538 15.4462 80 34.5 80Z" stroke="#91FFAE" stroke-width="2.33" stroke-linejoin="round"/>
<path d="M34.4999 11C34.4999 11 21.0833 22.5 21.0833 45.5C21.0833 68.5 34.4999 80 34.4999 80" stroke="#91FFAE" stroke-width="2.33" stroke-linejoin="round"/>
<path d="M34.5 11C34.5 11 47.9167 22.5 47.9167 45.5C47.9167 68.5 34.5 80 34.5 80" stroke="#91FFAE" stroke-width="2.33" stroke-linejoin="round"/>
<path d="M0 45.5H69" stroke="#91FFAE" stroke-width="2.33" stroke-linejoin="round"/>
<path d="M63.25 28.25H5.75" stroke="#91FFAE" stroke-width="2.33" stroke-linejoin="round"/>
<g filter="url(#filter0_d_74_80)">
<path d="M63.25 62.75H5.75" stroke="#91FFAE" stroke-width="2.33" stroke-linejoin="round"/>
</g>
</g>
<defs>
<filter id="filter0_d_74_80" x="-27.5833" y="61.585" width="124.167" height="68.9967" filterUnits="userSpaceOnUse" color-interpolation-filters="sRGB">
<feFlood flood-opacity="0" result="BackgroundImageFix"/>
<feColorMatrix in="SourceAlpha" type="matrix" values="0 0 0 0 0 0 0 0 0 0 0 0 0 0 0 0 0 0 127 0" result="hardAlpha"/>
<feOffset dy="33.3333"/>
<feGaussianBlur stdDeviation="16.6667"/>
<feColorMatrix type="matrix" values="0 0 0 0 0 0 0 0 0 0 0 0 0 0 0 0 0 0 0.1 0"/>
<feBlend mode="normal" in2="BackgroundImageFix" result="effect1_dropShadow_74_80"/>
<feBlend mode="normal" in="SourceGraphic" in2="effect1_dropShadow_74_80" result="shape"/>
</filter>
<clipPath id="clip0_74_80">
<rect width="92" height="92" fill="white"/>
</clipPath>
</defs>
</svg>
