<svg width="81" height="81" viewBox="0 0 81 81" fill="none" xmlns="http://www.w3.org/2000/svg">
<path d="M40.0913 31.5625C47.271 31.5625 53.0913 26.1899 53.0913 19.5625C53.0913 12.9351 47.271 7.5625 40.0913 7.5625C32.9116 7.5625 27.0913 12.9351 27.0913 19.5625C27.0913 26.1899 32.9116 31.5625 40.0913 31.5625Z" stroke="#91FFAE" stroke-width="3.33" stroke-linecap="round"/>
<path d="M49.0913 12.3125C50.0983 10.6853 51.6001 9.37325 53.4059 8.54219C55.2122 7.71118 57.242 7.39854 59.2386 7.64378C61.2348 7.88902 63.1088 8.68118 64.6229 9.92002C66.1369 11.1589 67.2233 12.7888 67.7446 14.6037C68.2654 16.4186 68.1982 18.337 67.5512 20.1162C66.9036 21.8954 65.7052 23.4555 64.1076 24.5994C62.5101 25.7432 60.5847 26.4193 58.5753 26.5422C56.5659 26.665 54.5626 26.2292 52.8184 25.2897" stroke="#91FFAE" stroke-width="3.33"/>
<path d="M31.0913 12.3125C30.1373 10.6853 28.7148 9.37325 27.0037 8.54219C25.2926 7.71118 23.3698 7.39854 21.4783 7.64378C19.5868 7.88902 17.8116 8.68118 16.3773 9.92002C14.9429 11.1589 13.9138 12.7888 13.42 14.6037C12.9262 16.4186 12.99 18.337 13.6032 20.1162C14.2165 21.8954 15.3517 23.4555 16.8652 24.5994C18.3788 25.7432 20.2028 26.4193 22.1065 26.5422C24.0102 26.665 25.9082 26.2292 27.5604 25.2897" stroke="#91FFAE" stroke-width="3.33"/>
<path d="M40.5913 42.5625C61.3071 42.5625 66.6549 59.0735 68.0354 67.5975C68.4771 70.3245 66.2426 72.5625 63.4385 72.5625H17.744C14.94 72.5625 12.7056 70.3245 13.1472 67.5975C14.5276 59.0735 19.8752 42.5625 40.5913 42.5625Z" stroke="#91FFAE" stroke-width="3.33" stroke-linecap="round"/>
<path d="M71.2104 62.8975H69.8774L71.2104 62.5146V62.8975ZM78.4019 58.1162C78.2283 60.2648 76.6615 62.0377 74.5405 62.6582V60.8867C75.5715 60.4354 76.3056 59.5768 76.5786 58.5684L78.4019 58.1162ZM71.2104 61.2275V62.4023L70.8677 61.2275H71.2104ZM51.6929 43.1348C59.4612 46.121 63.7849 52.1527 66.186 57.8975H65.0845V59.7617C62.8271 53.6989 58.4922 47.1856 50.1333 44.3535C50.6248 43.9072 51.1428 43.4982 51.6929 43.1348ZM59.9292 36.3018C65.5699 36.803 69.6167 39.833 72.4722 43.6006C75.1523 47.1368 76.81 51.351 77.8198 54.8301L77.0239 55.0273L76.1548 55.2422C75.1763 51.8832 73.5939 47.8965 71.0894 44.5918V44.5908C68.4733 41.1396 64.8866 38.4689 59.9292 37.9785V36.3018ZM56.5991 37.9795C54.6477 38.1724 52.9104 38.7017 51.3618 39.4834C50.6293 39.2482 49.8713 39.0367 49.0874 38.8496C51.2061 37.4898 53.6925 36.5592 56.5991 36.3008V37.9795Z" stroke="#91FFAE" stroke-width="3.33"/>
<path d="M11.0308 62.8975H9.7876V62.5312L11.0308 62.8975ZM4.47217 58.5605C4.73649 59.5581 5.44383 60.4224 6.45752 60.8799V62.6396C4.45509 62.0077 2.94713 60.2691 2.77783 58.1299L4.47217 58.5605ZM10.0376 61.2275L9.7876 62.1074V61.2275H10.0376ZM28.7505 43.1445C29.2804 43.5063 29.7807 43.9123 30.2554 44.3564C22.1959 47.1581 17.9758 53.5499 15.7554 59.5352V57.8975H14.6792C17.016 52.1522 21.2176 46.1321 28.7505 43.1445ZM20.6938 37.9824C15.8525 38.4846 12.3575 41.1663 9.81592 44.6074V44.6084C7.38165 47.905 5.84134 51.8788 4.88818 55.2305L4.1001 55.0303L3.34326 54.8369C4.32734 51.3518 5.9456 47.1272 8.56201 43.584C11.3375 39.8258 15.2534 36.8172 20.6938 36.3047V37.9824ZM24.0239 36.3057C26.8282 36.5701 29.2297 37.4979 31.2798 38.8525C30.5254 39.0373 29.7959 39.246 29.0903 39.4775C27.5914 38.7052 25.9109 38.178 24.0239 37.9824V36.3057Z" stroke="#91FFAE" stroke-width="3.33"/>
</svg>
