<svg width="112" height="112" viewBox="0 0 112 112" fill="none" xmlns="http://www.w3.org/2000/svg">
<path fill-rule="evenodd" clip-rule="evenodd" d="M11.2538 77.0575C11.3776 73.3703 11.1295 39.5069 11.1295 35.3485C11.1295 31.19 14.6978 27.8497 19.0015 27.7679C23.3051 27.6857 43.1291 27.8432 43.1291 27.8432C43.6117 27.8467 44.2763 28.1302 44.6166 28.4762L52.7056 36.6885C53.2148 37.2061 54.2158 37.6038 54.9399 37.5767C54.9399 37.5767 74.476 36.8307 78.6883 36.8307C82.9005 36.8307 86.1411 40.5582 86.1411 44.1138C86.1411 47.6694 86.355 50.6072 86.355 50.6072C86.361 50.7207 86.39 50.8317 86.4402 50.9337C86.4904 51.0357 86.5607 51.1264 86.647 51.2004C86.7332 51.2744 86.8336 51.3301 86.942 51.3642C87.0504 51.3982 87.1646 51.41 87.2777 51.3986C87.2777 51.3986 87.654 51.2297 93.8936 51.3549C100.134 51.4809 103.136 57.3539 100.134 61.9677C97.1311 66.5816 89.5286 77.8472 87.8351 80.1756C86.1411 82.504 84.469 84.0309 81.2402 83.7863C78.0115 83.5413 23.0978 84.142 18.9577 84.142C14.8168 84.142 11.13 80.7448 11.2538 77.0575ZM19.1314 36.0603L18.8208 69.1217C18.8164 69.6087 19.0194 69.6686 19.2749 69.26C19.2749 69.26 27.2256 56.5077 28.6912 54.7472C30.1568 52.9863 32.095 51.399 35.0262 51.399C37.9575 51.399 78.4827 51.1304 78.4827 51.1304C78.4827 51.1304 78.9958 44.9236 78.3138 44.2936C77.6317 43.6636 51.2684 44.1055 51.2684 44.1055C50.7876 44.1134 50.1051 43.85 49.7511 43.5175L41.2693 35.544C40.9158 35.2115 40.2368 34.9464 39.753 34.9517L20.0156 35.1726C19.7816 35.1765 19.5584 35.2714 19.3934 35.4373C19.2284 35.6031 19.1341 35.8263 19.1314 36.0603ZM23.2133 76.981L80.335 77.0484C80.8215 77.0488 81.4375 76.7264 81.7149 76.3278L93.7177 59.075C93.9938 58.6782 93.8275 58.3531 93.3436 58.3518L35.577 58.2345C35.0971 58.2332 34.4859 58.5592 34.2203 58.9617L22.8165 76.2508C22.55 76.6546 22.7285 76.9801 23.2133 76.981Z" fill="#91FFAE"/>
<path d="M19.0201 28.7676C21.1565 28.7267 27.1731 28.7453 32.6735 28.7744C35.4197 28.789 38.0323 28.8059 39.9576 28.8193C40.9202 28.8261 41.7111 28.8328 42.2614 28.8369C42.5365 28.839 42.7519 28.8407 42.8981 28.8418C42.9708 28.8424 43.0265 28.8425 43.0641 28.8428H43.1217C43.1926 28.8433 43.3466 28.871 43.5348 28.9512C43.6755 29.0111 43.783 29.0785 43.8502 29.1309L43.9039 29.1777L51.9928 37.3896C52.3721 37.7751 52.8809 38.0712 53.3727 38.2666C53.8028 38.4375 54.2951 38.5612 54.7731 38.5762H54.9821C54.9843 38.5761 54.9876 38.5754 54.9918 38.5752C55.0012 38.5748 55.0154 38.5749 55.0338 38.5742C55.0708 38.5728 55.126 38.5701 55.1979 38.5674C55.3418 38.5619 55.5539 38.5541 55.8248 38.5439C56.367 38.5236 57.147 38.4939 58.0953 38.459C59.9921 38.3891 62.5651 38.2963 65.2692 38.2031C70.6888 38.0163 76.6036 37.8311 78.6881 37.8311C82.3207 37.8311 85.1412 41.0832 85.1412 44.1143C85.1412 45.9109 85.1947 47.5499 85.2487 48.7393C85.2757 49.3343 85.3035 49.8179 85.3239 50.1533C85.334 50.3209 85.3423 50.4518 85.3483 50.541C85.3513 50.5856 85.3535 50.6202 85.3551 50.6436C85.3559 50.655 85.3566 50.6639 85.3571 50.6699C85.3573 50.6728 85.3569 50.6751 85.3571 50.6768L85.358 50.6787C85.3733 50.9207 85.4356 51.1574 85.5426 51.375C85.6525 51.5982 85.8069 51.797 85.9957 51.959C86.1847 52.1211 86.4047 52.2437 86.6422 52.3184C86.8797 52.393 87.1299 52.4184 87.3776 52.3936L87.5387 52.377L87.5592 52.3672C87.6655 52.3569 87.8788 52.3412 88.276 52.3291C89.1251 52.3033 90.7598 52.2921 93.8737 52.3545C96.6664 52.411 98.6381 53.7395 99.6071 55.4678C100.578 57.2 100.596 59.4228 99.2955 61.4219C96.2948 66.0329 88.7037 77.2803 87.026 79.5869C86.1998 80.7225 85.4509 81.5589 84.5856 82.0967C83.7515 82.615 82.7419 82.897 81.316 82.7891C80.4569 82.7239 76.3584 82.7166 70.7252 82.7383C65.0561 82.7602 57.7573 82.8123 50.4323 82.8721C35.7748 82.9917 21.0224 83.1416 18.9576 83.1416C17.1575 83.1416 15.4373 82.4011 14.1832 81.2471C12.9261 80.0903 12.2034 78.5842 12.2535 77.0908C12.378 73.3807 12.1295 39.4712 12.1295 35.3486C12.1295 31.7953 15.1993 28.8404 19.0201 28.7676ZM35.5778 57.2344C35.1309 57.2336 34.6955 57.3786 34.3463 57.5654C33.9967 57.7526 33.6331 58.0356 33.3854 58.4111L21.9821 75.7002C21.7453 76.059 21.5338 76.6552 21.8551 77.2451C22.1743 77.8309 22.7854 77.9807 23.2115 77.9814H23.2125L80.3336 78.0488H80.3346C80.7798 78.0491 81.2145 77.9073 81.566 77.7236C81.9177 77.5399 82.282 77.264 82.5358 76.8994V76.8984L94.5387 59.6465C94.7778 59.3027 95.0152 58.7088 94.7047 58.1064C94.3925 57.5011 93.7678 57.3527 93.3463 57.3516H93.3453L35.5787 57.2344H35.5778ZM39.7418 33.9521L20.0045 34.1729H19.9987C19.5046 34.1811 19.0328 34.3812 18.6842 34.7314C18.3368 35.0806 18.1372 35.5527 18.1315 36.0488V36.0508L17.8209 69.1123C17.8193 69.288 17.834 69.5064 17.9049 69.7207C17.9659 69.905 18.1554 70.3317 18.6617 70.4844C19.1732 70.6385 19.5692 70.382 19.7233 70.2578C19.9004 70.1151 20.03 69.9382 20.1227 69.79L20.1237 69.7891V69.7881L20.1246 69.7871C20.1256 69.7856 20.1276 69.7833 20.1295 69.7803C20.1333 69.7742 20.1387 69.7649 20.1461 69.7529C20.1611 69.7288 20.1833 69.6923 20.2125 69.6455C20.271 69.5519 20.3576 69.4149 20.4674 69.2393C20.6874 68.8876 21.0036 68.3824 21.3873 67.7715C22.1549 66.5496 23.1932 64.9027 24.277 63.2012C25.3613 61.4988 26.4889 59.7443 27.4362 58.3076C28.3992 56.847 29.137 55.7742 29.4596 55.3867C30.8388 53.7297 32.5227 52.3995 35.026 52.3994C36.4959 52.3994 47.3655 52.3318 57.86 52.2646C63.1087 52.2311 68.2659 52.198 72.111 52.1729C74.0333 52.1603 75.628 52.1489 76.7418 52.1416C77.2987 52.1379 77.7363 52.1358 78.0338 52.1338C78.1822 52.1328 78.296 52.1314 78.3727 52.1309H78.4889L79.4039 52.124L79.4791 51.2129V51.2109C79.4792 51.2101 79.48 51.2085 79.4801 51.207L79.485 51.1387C79.4887 51.0917 79.4942 51.0233 79.5006 50.9365C79.5135 50.7625 79.5314 50.5139 79.5504 50.2139C79.5883 49.6148 79.632 48.8062 79.6539 47.9746C79.6757 47.1486 79.6769 46.2757 79.6256 45.5566C79.6002 45.1999 79.5595 44.8501 79.4928 44.5508C79.4595 44.4011 79.414 44.2397 79.3492 44.0859C79.2895 43.944 79.1832 43.7354 78.9918 43.5586C78.8507 43.4284 78.7041 43.3642 78.6393 43.3379C78.5588 43.3052 78.4812 43.2829 78.4205 43.2676C78.2988 43.2369 78.1639 43.2151 78.0328 43.1973C77.7658 43.1609 77.4185 43.1311 77.0172 43.1064C76.2094 43.0569 75.1066 43.0227 73.819 42.999C71.2397 42.9516 67.8708 42.947 64.5309 42.9629C61.1892 42.9788 57.8691 43.0143 55.3854 43.0459C54.1435 43.0617 53.1101 43.077 52.3873 43.0879C52.026 43.0933 51.742 43.0975 51.5485 43.1006C51.4518 43.1021 51.3778 43.1037 51.3278 43.1045C51.3029 43.1049 51.2839 43.1053 51.2711 43.1055H51.2516C51.178 43.1066 51.0187 43.0826 50.8229 43.0068C50.6274 42.9312 50.4921 42.8414 50.4362 42.7891L41.9547 34.8154C41.6579 34.5363 41.2769 34.3275 40.9235 34.1895C40.6143 34.0688 40.2533 33.974 39.8951 33.9551L39.7418 33.9521Z" stroke="black" stroke-opacity="0.93" stroke-width="2"/>
</svg>
