<svg width="1471" height="953" viewBox="0 0 1471 953" fill="none" xmlns="http://www.w3.org/2000/svg">
<path d="M760.614 141.77L760.614 496.14M904.177 141.77L904.177 496.14M1047.74 141.77L1047.74 496.14M1191.3 141.77L1191.3 496.14M1334.87 259.697L617.051 259.697M1334.87 377.624L617.051 377.624" stroke="#1D211D" style="stroke:#1D211D;stroke:color(display-p3 0.1123 0.1298 0.1150);stroke-opacity:1;"/>
<path d="M756.307 256.159L764.92 263.235M764.92 256.159L756.307 263.235" stroke="#1D211D" style="stroke:#1D211D;stroke:color(display-p3 0.1123 0.1298 0.1150);stroke-opacity:1;" stroke-linecap="round" stroke-linejoin="round"/>
<path d="M1043.43 374.086L1052.05 381.161M1052.05 374.086L1043.43 381.161" stroke="#1D211D" style="stroke:#1D211D;stroke:color(display-p3 0.1123 0.1298 0.1150);stroke-opacity:1;" stroke-linecap="round" stroke-linejoin="round"/>
<path d="M1187 256.159L1195.61 263.235M1195.61 256.159L1187 263.235" stroke="#1D211D" style="stroke:#1D211D;stroke:color(display-p3 0.1123 0.1298 0.1150);stroke-opacity:1;" stroke-linecap="round" stroke-linejoin="round"/>
<rect x="1047.74" y="259.697" width="143.563" height="117.927" fill="#172719" fill-opacity="0.3" style="fill:#172719;fill:color(display-p3 0.0902 0.1538 0.0998);fill-opacity:0.3;"/>
<rect x="760.614" y="141.77" width="143.563" height="117.927" fill="#172719" fill-opacity="0.3" style="fill:#172719;fill:color(display-p3 0.0902 0.1538 0.0998);fill-opacity:0.3;"/>
<rect x="904.177" y="377.623" width="143.563" height="117.927" fill="#172719" fill-opacity="0.3" style="fill:#172719;fill:color(display-p3 0.0902 0.1538 0.0998);fill-opacity:0.3;"/>
<path d="M256.122 6.94294e-05L256.122 296.84M376.379 7.13068e-05L376.379 296.84M496.635 7.31841e-05L496.635 296.84M616.892 7.50615e-05L616.892 296.84M737.148 98.782L135.866 98.782M737.148 197.564L135.866 197.564" stroke="#1D211D" style="stroke:#1D211D;stroke:color(display-p3 0.1123 0.1298 0.1150);stroke-opacity:1;"/>
<path d="M252.515 95.8185L259.73 101.745M259.73 95.8185L252.515 101.745" stroke="#1D211D" style="stroke:#1D211D;stroke:color(display-p3 0.1123 0.1298 0.1150);stroke-opacity:1;" stroke-linecap="round" stroke-linejoin="round"/>
<path d="M493.028 194.601L500.243 200.527M500.243 194.601L493.028 200.527" stroke="#1D211D" style="stroke:#1D211D;stroke:color(display-p3 0.1123 0.1298 0.1150);stroke-opacity:1;" stroke-linecap="round" stroke-linejoin="round"/>
<path d="M613.284 95.8185L620.499 101.745M620.499 95.8185L613.284 101.745" stroke="#1D211D" style="stroke:#1D211D;stroke:color(display-p3 0.1123 0.1298 0.1150);stroke-opacity:1;" stroke-linecap="round" stroke-linejoin="round"/>
<rect x="496.635" y="98.7819" width="120.256" height="98.782" fill="#172719" fill-opacity="0.3" style="fill:#172719;fill:color(display-p3 0.0902 0.1538 0.0998);fill-opacity:0.3;"/>
<rect x="256.122" y="6.7552e-05" width="120.256" height="98.782" fill="#172719" fill-opacity="0.3" style="fill:#172719;fill:color(display-p3 0.0902 0.1538 0.0998);fill-opacity:0.3;"/>
<rect x="376.379" y="197.564" width="120.256" height="98.782" fill="#172719" fill-opacity="0.3" style="fill:#172719;fill:color(display-p3 0.0902 0.1538 0.0998);fill-opacity:0.3;"/>
<g filter="url(#filter0_f_185_132)">
<path d="M1304.38 510.25C1303.49 569.005 1068.86 522.208 754.94 514.516C441.025 506.825 181.894 543.752 182.782 484.996C183.669 426.24 425.359 332.258 739.274 339.949C1053.19 347.641 1305.26 451.494 1304.38 510.25Z" fill="url(#paint0_linear_185_132)" style=""/>
</g>
<g style="mix-blend-mode:plus-lighter" filter="url(#filter1_f_185_132)">
<path d="M1268.07 471.328C1267.73 493.755 1058.09 430.149 774.847 423.209C491.6 416.269 247.783 469.339 248.122 446.912C248.461 424.485 482.549 340.314 765.796 347.253C1049.04 354.193 1268.41 448.901 1268.07 471.328Z" fill="white" fill-opacity="0.8" style="fill:white;fill-opacity:0.8;"/>
</g>
<g style="mix-blend-mode:overlay" filter="url(#filter2_f_185_132)">
<path d="M1253.15 523.944C1252.54 564.363 1043.61 453.868 760.36 446.928C477.113 439.988 232.581 540.408 233.191 499.989C233.802 459.57 468.98 303.299 752.227 310.239C1035.47 317.179 1253.76 483.525 1253.15 523.944Z" fill="white" fill-opacity="0.8" style="fill:white;fill-opacity:0.8;"/>
</g>
<path d="M1470.87 536.741L1470.87 952.292L-3.42131e-05 952.292L2.06277e-06 537.345C184.394 422.772 445.899 351.252 735.919 351.252C1025.43 351.252 1286.53 422.521 1470.87 536.741Z" fill="url(#paint1_radial_185_132)" style=""/>
<g opacity="0.87" filter="url(#filter3_f_185_132)">
<path d="M735.052 392.65C600.162 385.362 491.356 404.694 491.807 384.372C492.258 364.05 601.795 311.771 736.685 319.058C871.576 326.346 981.169 377.367 980.718 397.688C980.267 418.01 869.942 399.937 735.052 392.65Z" fill="url(#paint2_linear_185_132)" style=""/>
</g>
<g style="mix-blend-mode:plus-lighter" opacity="0.87" filter="url(#filter4_f_185_132)">
<path d="M730.56 354.976C474.756 341.155 281.684 422.184 281.788 417.5C281.892 412.816 475.132 324.193 730.937 338.013C986.741 351.834 1207.97 428.638 1207.86 433.322C1207.76 438.006 986.364 368.796 730.56 354.976Z" fill="#50FF47" style="fill:#50FF47;fill:color(display-p3 0.3149 1.0000 0.2788);fill-opacity:1;"/>
</g>
<defs>
<filter id="filter0_f_185_132" x="82.2794" y="239.005" width="1322.6" height="400.943" filterUnits="userSpaceOnUse" color-interpolation-filters="sRGB">
<feFlood flood-opacity="0" result="BackgroundImageFix"/>
<feBlend mode="normal" in="SourceGraphic" in2="BackgroundImageFix" result="shape"/>
<feGaussianBlur stdDeviation="50.25" result="effect1_foregroundBlur_185_132"/>
</filter>
<filter id="filter1_f_185_132" x="215.522" y="314.248" width="1085.15" height="194.447" filterUnits="userSpaceOnUse" color-interpolation-filters="sRGB">
<feFlood flood-opacity="0" result="BackgroundImageFix"/>
<feBlend mode="normal" in="SourceGraphic" in2="BackgroundImageFix" result="shape"/>
<feGaussianBlur stdDeviation="16.3" result="effect1_foregroundBlur_185_132"/>
</filter>
<filter id="filter2_f_185_132" x="200.59" y="277.415" width="1085.16" height="287.995" filterUnits="userSpaceOnUse" color-interpolation-filters="sRGB">
<feFlood flood-opacity="0" result="BackgroundImageFix"/>
<feBlend mode="normal" in="SourceGraphic" in2="BackgroundImageFix" result="shape"/>
<feGaussianBlur stdDeviation="16.3" result="effect1_foregroundBlur_185_132"/>
</filter>
<filter id="filter3_f_185_132" x="397.506" y="224.067" width="677.514" height="277.267" filterUnits="userSpaceOnUse" color-interpolation-filters="sRGB">
<feFlood flood-opacity="0" result="BackgroundImageFix"/>
<feBlend mode="normal" in="SourceGraphic" in2="BackgroundImageFix" result="shape"/>
<feGaussianBlur stdDeviation="47.15" result="effect1_foregroundBlur_185_132"/>
</filter>
<filter id="filter4_f_185_132" x="213.388" y="268.152" width="1062.88" height="233.797" filterUnits="userSpaceOnUse" color-interpolation-filters="sRGB">
<feFlood flood-opacity="0" result="BackgroundImageFix"/>
<feBlend mode="normal" in="SourceGraphic" in2="BackgroundImageFix" result="shape"/>
<feGaussianBlur stdDeviation="34.2" result="effect1_foregroundBlur_185_132"/>
</filter>
<linearGradient id="paint0_linear_185_132" x1="745.738" y1="354.76" x2="741.659" y2="521.24" gradientUnits="userSpaceOnUse">
<stop stop-color="#FFAE00" style="stop-color:#FFAE00;stop-color:color(display-p3 1.0000 0.6824 0.0000);stop-opacity:1;"/>
<stop offset="0.46" stop-color="#3CAE66" style="stop-color:#3CAE66;stop-color:color(display-p3 0.2353 0.6824 0.4000);stop-opacity:1;"/>
<stop offset="1" stop-color="#009086" style="stop-color:#009086;stop-color:color(display-p3 0.0000 0.5647 0.5255);stop-opacity:1;"/>
</linearGradient>
<radialGradient id="paint1_radial_185_132" cx="0" cy="0" r="1" gradientUnits="userSpaceOnUse" gradientTransform="translate(735.433 552.266) rotate(-90) scale(201.014 491.921)">
<stop stop-color="#0E0F0E" style="stop-color:#0E0F0E;stop-color:color(display-p3 0.0558 0.0577 0.0560);stop-opacity:1;"/>
<stop offset="1" stop-color="#0E0F0E" style="stop-color:#0E0F0E;stop-color:color(display-p3 0.0558 0.0577 0.0560);stop-opacity:1;"/>
</radialGradient>
<linearGradient id="paint2_linear_185_132" x1="943.437" y1="373.467" x2="513.686" y2="363.928" gradientUnits="userSpaceOnUse">
<stop stop-color="#FFAE00" style="stop-color:#FFAE00;stop-color:color(display-p3 1.0000 0.6824 0.0000);stop-opacity:1;"/>
<stop offset="0.46" stop-color="#3CAE66" style="stop-color:#3CAE66;stop-color:color(display-p3 0.2353 0.6824 0.4000);stop-opacity:1;"/>
<stop offset="1" stop-color="#009086" style="stop-color:#009086;stop-color:color(display-p3 0.0000 0.5647 0.5255);stop-opacity:1;"/>
</linearGradient>
</defs>
</svg>
