<svg width="1536" height="1054" viewBox="0 0 1536 1054" fill="none" xmlns="http://www.w3.org/2000/svg">
<rect width="1536" height="1054" fill="#0E0F0E" style="fill:#0E0F0E;fill:color(display-p3 0.0549 0.0588 0.0549);fill-opacity:1;"/>
<path d="M285.906 0V416.737M425.264 0V416.737M564.622 0V416.737M703.981 0V416.737M843.339 138.681L146.547 138.681M843.339 277.362H146.547" stroke="#1D211D" style="stroke:#1D211D;stroke:color(display-p3 0.1123 0.1298 0.1150);stroke-opacity:1;"/>
<path d="M281.725 134.521L290.086 142.842M290.086 134.521L281.725 142.842" stroke="#1D211D" style="stroke:#1D211D;stroke:color(display-p3 0.1123 0.1298 0.1150);stroke-opacity:1;" stroke-linecap="round" stroke-linejoin="round"/>
<path d="M560.442 273.202L568.803 281.523M568.803 273.202L560.442 281.523" stroke="#1D211D" style="stroke:#1D211D;stroke:color(display-p3 0.1123 0.1298 0.1150);stroke-opacity:1;" stroke-linecap="round" stroke-linejoin="round"/>
<path d="M699.8 134.521L708.162 142.842M708.161 134.521L699.8 142.842" stroke="#1D211D" style="stroke:#1D211D;stroke:color(display-p3 0.1123 0.1298 0.1150);stroke-opacity:1;" stroke-linecap="round" stroke-linejoin="round"/>
<rect x="564.622" y="138.681" width="139.358" height="138.681" fill="#172719" fill-opacity="0.3" style="fill:#172719;fill:color(display-p3 0.0902 0.1538 0.0998);fill-opacity:0.3;"/>
<rect x="285.906" width="139.358" height="138.681" fill="#172719" fill-opacity="0.3" style="fill:#172719;fill:color(display-p3 0.0902 0.1538 0.0998);fill-opacity:0.3;"/>
<rect x="425.264" y="277.362" width="139.358" height="138.681" fill="#172719" fill-opacity="0.3" style="fill:#172719;fill:color(display-p3 0.0902 0.1538 0.0998);fill-opacity:0.3;"/>
<path d="M870.532 199.033V696.537M1036.9 199.033V696.537M1203.27 199.033V696.537M1369.63 199.033V696.537M1536 364.592L704.165 364.592M1536 530.15H704.165" stroke="#1D211D" style="stroke:#1D211D;stroke:color(display-p3 0.1123 0.1298 0.1150);stroke-opacity:1;"/>
<path d="M865.541 359.625L875.523 369.559M875.523 359.625L865.541 369.559" stroke="#1D211D" style="stroke:#1D211D;stroke:color(display-p3 0.1123 0.1298 0.1150);stroke-opacity:1;" stroke-linecap="round" stroke-linejoin="round"/>
<path d="M1198.28 525.184L1208.26 535.117M1208.26 525.184L1198.28 535.117" stroke="#1D211D" style="stroke:#1D211D;stroke:color(display-p3 0.1123 0.1298 0.1150);stroke-opacity:1;" stroke-linecap="round" stroke-linejoin="round"/>
<path d="M1364.64 359.625L1374.62 369.559M1374.62 359.625L1364.64 369.559" stroke="#1D211D" style="stroke:#1D211D;stroke:color(display-p3 0.1123 0.1298 0.1150);stroke-opacity:1;" stroke-linecap="round" stroke-linejoin="round"/>
<rect x="1203.27" y="364.592" width="166.367" height="165.559" fill="#172719" fill-opacity="0.3" style="fill:#172719;fill:color(display-p3 0.0902 0.1538 0.0998);fill-opacity:0.3;"/>
<rect x="870.532" y="199.033" width="166.367" height="165.559" fill="#172719" fill-opacity="0.3" style="fill:#172719;fill:color(display-p3 0.0902 0.1538 0.0998);fill-opacity:0.3;"/>
<rect x="1036.9" y="530.15" width="166.367" height="165.559" fill="#172719" fill-opacity="0.3" style="fill:#172719;fill:color(display-p3 0.0902 0.1538 0.0998);fill-opacity:0.3;"/>
<g filter="url(#filter0_f_185_43)">
<path d="M1364.48 213.568C1378.84 239.039 1283.79 266.792 1170.34 327.561C1056.89 388.33 974.042 457.121 959.685 431.649C945.328 406.178 1007.73 316.39 1121.18 255.621C1234.63 194.852 1350.13 188.097 1364.48 213.568Z" fill="url(#paint0_linear_185_43)" style=""/>
</g>
<g style="mix-blend-mode:plus-lighter" filter="url(#filter1_f_185_43)">
<path d="M1341.86 204.226C1347.34 213.949 1256.98 229.364 1154.61 284.196C1052.24 339.028 978.87 411.641 973.39 401.919C967.91 392.197 1030.06 308.183 1132.43 253.351C1234.8 198.519 1336.38 194.504 1341.86 204.226Z" fill="white" fill-opacity="0.8" style="fill:white;fill-opacity:0.8;"/>
</g>
<g style="mix-blend-mode:overlay" filter="url(#filter2_f_185_43)">
<path d="M1349.7 229.92C1359.58 247.442 1257.75 242.531 1155.39 297.363C1053.02 352.195 991.216 445.335 981.339 427.813C971.463 410.291 1016 295.021 1118.36 240.189C1220.73 185.357 1339.82 212.398 1349.7 229.92Z" fill="white" fill-opacity="0.8" style="fill:white;fill-opacity:0.8;"/>
</g>
<path d="M1430.25 190.986L1534.02 369.849L1011.44 670.097L907.817 491.493C944.72 404.538 1019.77 320.373 1122.81 261.171C1225.67 202.073 1336.23 179.452 1430.25 190.986Z" fill="url(#paint1_linear_185_43)" style=""/>
<g opacity="0.87" filter="url(#filter3_f_185_43)">
<path d="M1132.84 279.167C1083.1 303.565 1049.27 334.096 1044.35 325.257C1039.44 316.418 1065.3 271.556 1115.04 247.158C1164.79 222.759 1216.47 222.349 1221.38 231.188C1226.3 240.027 1182.59 254.768 1132.84 279.167Z" fill="url(#paint2_linear_185_43)" style=""/>
</g>
<g style="mix-blend-mode:plus-lighter" opacity="0.87" filter="url(#filter4_f_185_43)">
<path d="M1121.84 263.868C1027.5 310.136 979.139 384.425 978.006 382.387C976.873 380.35 1023.4 302.758 1117.73 256.49C1212.07 210.221 1309.85 198.121 1310.98 200.158C1312.11 202.195 1216.17 217.599 1121.84 263.868Z" fill="#50FF47" style="fill:#50FF47;fill:color(display-p3 0.3149 1.0000 0.2788);fill-opacity:1;"/>
</g>
<g filter="url(#filter5_f_185_43)">
<path d="M956.816 680.07C931.825 721.938 812.307 608.487 629.537 496.117C446.767 383.747 277.874 322.047 302.866 280.18C327.857 238.312 510.175 253.125 692.945 365.495C875.715 477.865 981.808 638.203 956.816 680.07Z" fill="url(#paint3_linear_185_43)" style=""/>
</g>
<g style="mix-blend-mode:plus-lighter" filter="url(#filter6_f_185_43)">
<path d="M951.515 639.778C941.976 655.759 844.265 538.752 679.351 437.36C514.437 335.968 347.894 291.068 357.434 275.087C366.973 259.106 540.702 278.373 705.616 379.765C870.53 481.157 961.054 623.797 951.515 639.778Z" fill="white" fill-opacity="0.8" style="fill:white;fill-opacity:0.8;"/>
</g>
<g style="mix-blend-mode:overlay" filter="url(#filter7_f_185_43)">
<path d="M920.764 672.462C903.572 701.263 825.805 550.844 660.891 449.452C495.977 348.06 309.295 336.9 326.487 308.098C343.679 279.297 548.076 247.188 712.99 348.58C877.904 449.972 937.956 643.66 920.764 672.462Z" fill="white" fill-opacity="0.8" style="fill:white;fill-opacity:0.8;"/>
</g>
<path d="M1044.42 755.753L871.384 1054L-1.55699e-05 553.35L172.782 255.537C329.731 236.069 514.434 273.749 686.251 372.466C857.766 471.009 982.771 611.03 1044.42 755.753Z" fill="url(#paint4_radial_185_43)" style=""/>
<g opacity="0.87" filter="url(#filter8_f_185_43)">
<path d="M668.499 401.882C591.621 350.738 519.112 327.577 527.841 313.146C536.57 298.714 623.232 298.476 700.11 349.62C776.989 400.764 820.67 474.685 811.941 489.117C803.212 503.549 745.378 453.026 668.499 401.882Z" fill="url(#paint5_linear_185_43)" style=""/>
</g>
<g style="mix-blend-mode:plus-lighter" opacity="0.87" filter="url(#filter9_f_185_43)">
<path d="M681.526 373.313C535.734 276.324 387.613 268.762 389.625 265.436C391.637 262.109 543.02 264.278 688.812 361.267C834.603 458.256 933.683 588.68 931.671 592.007C929.659 595.333 827.317 470.302 681.526 373.313Z" fill="#50FF47" style="fill:#50FF47;fill:color(display-p3 0.3149 1.0000 0.2788);fill-opacity:1;"/>
</g>
<defs>
<filter id="filter0_f_185_43" x="857.15" y="99.0997" width="609.273" height="438.497" filterUnits="userSpaceOnUse" color-interpolation-filters="sRGB">
<feFlood flood-opacity="0" result="BackgroundImageFix"/>
<feBlend mode="normal" in="SourceGraphic" in2="BackgroundImageFix" result="shape"/>
<feGaussianBlur stdDeviation="50.25" result="effect1_foregroundBlur_185_43"/>
</filter>
<filter id="filter1_f_185_43" x="940.455" y="167.48" width="434.246" height="267.922" filterUnits="userSpaceOnUse" color-interpolation-filters="sRGB">
<feFlood flood-opacity="0" result="BackgroundImageFix"/>
<feBlend mode="normal" in="SourceGraphic" in2="BackgroundImageFix" result="shape"/>
<feGaussianBlur stdDeviation="16.3" result="effect1_foregroundBlur_185_43"/>
</filter>
<filter id="filter2_f_185_43" x="947.397" y="174.973" width="435.569" height="287.601" filterUnits="userSpaceOnUse" color-interpolation-filters="sRGB">
<feFlood flood-opacity="0" result="BackgroundImageFix"/>
<feBlend mode="normal" in="SourceGraphic" in2="BackgroundImageFix" result="shape"/>
<feGaussianBlur stdDeviation="16.3" result="effect1_foregroundBlur_185_43"/>
</filter>
<filter id="filter3_f_185_43" x="949.459" y="131.622" width="366.601" height="289.495" filterUnits="userSpaceOnUse" color-interpolation-filters="sRGB">
<feFlood flood-opacity="0" result="BackgroundImageFix"/>
<feBlend mode="normal" in="SourceGraphic" in2="BackgroundImageFix" result="shape"/>
<feGaussianBlur stdDeviation="47.15" result="effect1_foregroundBlur_185_43"/>
</filter>
<filter id="filter4_f_185_43" x="909.586" y="131.545" width="469.806" height="319.284" filterUnits="userSpaceOnUse" color-interpolation-filters="sRGB">
<feFlood flood-opacity="0" result="BackgroundImageFix"/>
<feBlend mode="normal" in="SourceGraphic" in2="BackgroundImageFix" result="shape"/>
<feGaussianBlur stdDeviation="34.2" result="effect1_foregroundBlur_185_43"/>
</filter>
<filter id="filter5_f_185_43" x="199.899" y="158.217" width="861.039" height="631.245" filterUnits="userSpaceOnUse" color-interpolation-filters="sRGB">
<feFlood flood-opacity="0" result="BackgroundImageFix"/>
<feBlend mode="normal" in="SourceGraphic" in2="BackgroundImageFix" result="shape"/>
<feGaussianBlur stdDeviation="50.25" result="effect1_foregroundBlur_185_43"/>
</filter>
<filter id="filter6_f_185_43" x="324.443" y="237.503" width="660.357" height="436.349" filterUnits="userSpaceOnUse" color-interpolation-filters="sRGB">
<feFlood flood-opacity="0" result="BackgroundImageFix"/>
<feBlend mode="normal" in="SourceGraphic" in2="BackgroundImageFix" result="shape"/>
<feGaussianBlur stdDeviation="16.3" result="effect1_foregroundBlur_185_43"/>
</filter>
<filter id="filter7_f_185_43" x="292.782" y="246.866" width="663.415" height="461.796" filterUnits="userSpaceOnUse" color-interpolation-filters="sRGB">
<feFlood flood-opacity="0" result="BackgroundImageFix"/>
<feBlend mode="normal" in="SourceGraphic" in2="BackgroundImageFix" result="shape"/>
<feGaussianBlur stdDeviation="16.3" result="effect1_foregroundBlur_185_43"/>
</filter>
<filter id="filter8_f_185_43" x="432.825" y="210.503" width="474.518" height="375.415" filterUnits="userSpaceOnUse" color-interpolation-filters="sRGB">
<feFlood flood-opacity="0" result="BackgroundImageFix"/>
<feBlend mode="normal" in="SourceGraphic" in2="BackgroundImageFix" result="shape"/>
<feGaussianBlur stdDeviation="47.15" result="effect1_foregroundBlur_185_43"/>
</filter>
<filter id="filter9_f_185_43" x="321.205" y="196.207" width="678.896" height="464.265" filterUnits="userSpaceOnUse" color-interpolation-filters="sRGB">
<feFlood flood-opacity="0" result="BackgroundImageFix"/>
<feBlend mode="normal" in="SourceGraphic" in2="BackgroundImageFix" result="shape"/>
<feGaussianBlur stdDeviation="34.2" result="effect1_foregroundBlur_185_43"/>
</filter>
<linearGradient id="paint0_linear_185_43" x1="1127.18" y1="260.676" x2="1166.29" y2="333.705" gradientUnits="userSpaceOnUse">
<stop stop-color="#FFAE00" style="stop-color:#FFAE00;stop-color:color(display-p3 1.0000 0.6824 0.0000);stop-opacity:1;"/>
<stop offset="0.46" stop-color="#3CAE66" style="stop-color:#3CAE66;stop-color:color(display-p3 0.2353 0.6824 0.4000);stop-opacity:1;"/>
<stop offset="1" stop-color="#009086" style="stop-color:#009086;stop-color:color(display-p3 0.0000 0.5647 0.5255);stop-opacity:1;"/>
</linearGradient>
<linearGradient id="paint1_linear_185_43" x1="1247.5" y1="474.5" x2="1177.54" y2="346.66" gradientUnits="userSpaceOnUse">
<stop stop-color="#0E0F0E" stop-opacity="0" style="stop-color:none;stop-opacity:0;"/>
<stop offset="1" stop-color="#0E0F0E" style="stop-color:#0E0F0E;stop-color:color(display-p3 0.0558 0.0577 0.0560);stop-opacity:1;"/>
</linearGradient>
<linearGradient id="paint2_linear_185_43" x1="1202.09" y1="228.372" x2="1048.12" y2="313.976" gradientUnits="userSpaceOnUse">
<stop stop-color="#FFAE00" style="stop-color:#FFAE00;stop-color:color(display-p3 1.0000 0.6824 0.0000);stop-opacity:1;"/>
<stop offset="0.46" stop-color="#3CAE66" style="stop-color:#3CAE66;stop-color:color(display-p3 0.2353 0.6824 0.4000);stop-opacity:1;"/>
<stop offset="1" stop-color="#009086" style="stop-color:#009086;stop-color:color(display-p3 0.0000 0.5647 0.5255);stop-opacity:1;"/>
</linearGradient>
<linearGradient id="paint3_linear_185_43" x1="690.608" y1="378.325" x2="618.238" y2="496.034" gradientUnits="userSpaceOnUse">
<stop stop-color="#FFAE00" style="stop-color:#FFAE00;stop-color:color(display-p3 1.0000 0.6824 0.0000);stop-opacity:1;"/>
<stop offset="0.46" stop-color="#3CAE66" style="stop-color:#3CAE66;stop-color:color(display-p3 0.2353 0.6824 0.4000);stop-opacity:1;"/>
<stop offset="1" stop-color="#009086" style="stop-color:#009086;stop-color:color(display-p3 0.0000 0.5647 0.5255);stop-opacity:1;"/>
</linearGradient>
<radialGradient id="paint4_radial_185_43" cx="0" cy="0" r="1" gradientTransform="matrix(83.7014 -144.271 291.429 167.439 602.262 516.571)" gradientUnits="userSpaceOnUse">
<stop stop-color="#0E0F0E" style="stop-color:#0E0F0E;stop-color:color(display-p3 0.0558 0.0577 0.0560);stop-opacity:1;"/>
<stop offset="1" stop-color="#0E0F0E" style="stop-color:#0E0F0E;stop-color:color(display-p3 0.0558 0.0577 0.0560);stop-opacity:1;"/>
</radialGradient>
<linearGradient id="paint5_linear_185_43" x1="799.94" y1="459.043" x2="548.637" y2="307.041" gradientUnits="userSpaceOnUse">
<stop stop-color="#FFAE00" style="stop-color:#FFAE00;stop-color:color(display-p3 1.0000 0.6824 0.0000);stop-opacity:1;"/>
<stop offset="0.46" stop-color="#3CAE66" style="stop-color:#3CAE66;stop-color:color(display-p3 0.2353 0.6824 0.4000);stop-opacity:1;"/>
<stop offset="1" stop-color="#009086" style="stop-color:#009086;stop-color:color(display-p3 0.0000 0.5647 0.5255);stop-opacity:1;"/>
</linearGradient>
</defs>
</svg>
