<svg width="894" height="1078" viewBox="0 0 894 1078" fill="none" xmlns="http://www.w3.org/2000/svg">
<g filter="url(#filter0_f_0_14)">
<path d="M657.12 650.461C630.005 696.108 500.331 572.416 302.031 449.902C103.731 327.389 -79.5138 260.119 -52.3986 214.472C-25.2835 168.825 172.526 184.976 370.827 307.489C569.127 430.003 684.235 604.814 657.12 650.461Z" fill="url(#paint0_linear_0_14)"/>
</g>
<g filter="url(#filter1_f_0_14)" style="mix-blend-mode:plus-lighter">
<path d="M651.368 606.532C641.018 623.955 535.005 496.385 356.077 385.841C177.15 275.297 -3.54382 226.343 6.80606 208.919C17.1559 191.496 205.648 212.503 384.575 323.047C563.502 433.591 661.718 589.108 651.368 606.532Z" fill="white" fill-opacity="0.8"/>
</g>
<g filter="url(#filter2_f_0_14)" style="mix-blend-mode:overlay">
<path d="M618.004 642.166C599.351 673.567 514.976 509.569 336.049 399.025C157.122 288.481 -45.4236 276.313 -26.7706 244.911C-8.11766 213.51 213.647 178.503 392.575 289.047C571.502 399.591 636.657 610.764 618.004 642.166Z" fill="white" fill-opacity="0.8"/>
</g>
<path d="M752.165 732.975L763 790.5L6.5002 732.975L-381.001 512.301L-193.537 187.604C-23.2519 166.379 177.147 207.461 363.563 315.088C549.653 422.527 685.279 575.188 752.165 732.975Z" fill="url(#paint1_radial_0_14)"/>
<g opacity="0.87" filter="url(#filter3_f_0_14)">
<path d="M344.304 347.16C260.893 291.4 182.222 266.148 191.693 250.414C201.164 234.68 295.19 234.42 378.601 290.181C462.012 345.942 509.405 426.536 499.934 442.271C490.463 458.005 427.715 402.921 344.304 347.16Z" fill="url(#paint2_linear_0_14)"/>
</g>
<g opacity="0.87" filter="url(#filter4_f_0_14)" style="mix-blend-mode:plus-lighter">
<path d="M358.437 316.014C200.257 210.269 39.5495 202.025 41.7324 198.398C43.9154 194.771 208.162 197.136 366.342 302.88C524.522 408.624 632.021 550.822 629.838 554.448C627.655 558.075 516.616 421.758 358.437 316.014Z" fill="#50FF47"/>
</g>
<defs>
<filter id="filter0_f_0_14" x="-155.575" y="90.5724" width="917.125" height="670.084" filterUnits="userSpaceOnUse" color-interpolation-filters="sRGB">
<feFlood flood-opacity="0" result="BackgroundImageFix"/>
<feBlend mode="normal" in="SourceGraphic" in2="BackgroundImageFix" result="shape"/>
<feGaussianBlur stdDeviation="50.25" result="effect1_foregroundBlur_0_14"/>
</filter>
<filter id="filter1_f_0_14" x="-26.2184" y="170.886" width="710.93" height="469.853" filterUnits="userSpaceOnUse" color-interpolation-filters="sRGB">
<feFlood flood-opacity="0" result="BackgroundImageFix"/>
<feBlend mode="normal" in="SourceGraphic" in2="BackgroundImageFix" result="shape"/>
<feGaussianBlur stdDeviation="16.3" result="effect1_foregroundBlur_0_14"/>
</filter>
<filter id="filter2_f_0_14" x="-60.5692" y="181.094" width="714.247" height="497.597" filterUnits="userSpaceOnUse" color-interpolation-filters="sRGB">
<feFlood flood-opacity="0" result="BackgroundImageFix"/>
<feBlend mode="normal" in="SourceGraphic" in2="BackgroundImageFix" result="shape"/>
<feGaussianBlur stdDeviation="16.3" result="effect1_foregroundBlur_0_14"/>
</filter>
<filter id="filter3_f_0_14" x="96.6165" y="147.018" width="498.813" height="392.28" filterUnits="userSpaceOnUse" color-interpolation-filters="sRGB">
<feFlood flood-opacity="0" result="BackgroundImageFix"/>
<feBlend mode="normal" in="SourceGraphic" in2="BackgroundImageFix" result="shape"/>
<feGaussianBlur stdDeviation="47.15" result="effect1_foregroundBlur_0_14"/>
</filter>
<filter id="filter4_f_0_14" x="-26.6896" y="129.094" width="724.96" height="493.825" filterUnits="userSpaceOnUse" color-interpolation-filters="sRGB">
<feFlood flood-opacity="0" result="BackgroundImageFix"/>
<feBlend mode="normal" in="SourceGraphic" in2="BackgroundImageFix" result="shape"/>
<feGaussianBlur stdDeviation="34.2" result="effect1_foregroundBlur_0_14"/>
</filter>
<linearGradient id="paint0_linear_0_14" x1="368.291" y1="321.477" x2="289.216" y2="449.468" gradientUnits="userSpaceOnUse">
<stop stop-color="#FFAE00"/>
<stop offset="0.46" stop-color="#3CAE66"/>
<stop offset="1" stop-color="#009086"/>
</linearGradient>
<radialGradient id="paint1_radial_0_14" cx="0" cy="0" r="1" gradientUnits="userSpaceOnUse" gradientTransform="translate(272.437 472.202) rotate(-60) scale(181.627 365.107)">
<stop stop-color="#0E0F0E"/>
<stop offset="1" stop-color="#0E0F0E"/>
</radialGradient>
<linearGradient id="paint2_linear_0_14" x1="486.914" y1="409.482" x2="213.547" y2="244.937" gradientUnits="userSpaceOnUse">
<stop stop-color="#FFAE00"/>
<stop offset="0.46" stop-color="#3CAE66"/>
<stop offset="1" stop-color="#009086"/>
</linearGradient>
</defs>
</svg>
