<svg width="80" height="80" viewBox="0 0 80 80" fill="none" xmlns="http://www.w3.org/2000/svg">
<path d="M66.3267 54.3379H26.3266C23.2267 54.3379 21.6767 54.3379 20.4051 54.6786C16.9541 55.6032 14.2587 58.2989 13.334 61.7496" stroke="#91FFAE" stroke-width="2"/>
<path d="M23.334 54.3379V9.33789" stroke="#91FFAE" stroke-width="2" stroke-linecap="round"/>
<path d="M33.334 74.3376C23.9059 74.3376 19.1919 74.3376 16.2629 71.4086C13.334 68.4796 13.334 63.7656 13.334 54.3376V27.6709C13.334 18.2428 13.334 13.5288 16.2629 10.5998C19.1919 7.6709 23.9059 7.6709 33.334 7.6709H46.6673C56.0953 7.6709 60.8093 7.6709 63.7383 10.5998C66.6673 13.5288 66.6673 18.2428 66.6673 27.6709M46.6673 74.3376C56.0953 74.3376 60.8093 74.3376 63.7383 71.4086C66.6673 68.4796 66.6673 63.7656 66.6673 54.3376V41.0042" stroke="#91FFAE" stroke-width="2" stroke-linecap="round"/>
</svg>
