<svg width="65" height="65" viewBox="0 0 65 65" fill="none" xmlns="http://www.w3.org/2000/svg">
<path d="M32.3506 59.3095C17.4615 59.3095 5.3916 47.2396 5.3916 32.3506C5.3916 17.4615 17.4615 5.3916 32.3506 5.3916C47.2396 5.3916 59.3095 17.4615 59.3095 32.3506C59.2932 47.2328 47.2328 59.2932 32.3506 59.3095ZM32.3074 53.9177H32.3506C44.2576 53.9058 53.9021 44.2468 53.8962 32.3398C53.8902 20.4328 44.236 10.7834 32.329 10.7834C20.422 10.7834 10.7678 20.4328 10.7618 32.3398C10.7559 44.2468 20.4004 53.9058 32.3074 53.9177ZM26.9588 45.83L16.1752 35.0465L19.9764 31.2452L26.9588 38.2007L44.7247 20.4347L48.5259 24.2629L26.9588 45.83Z" fill="#91FFAE"/>
</svg>
