<svg width="112" height="112" viewBox="0 0 112 112" fill="none" xmlns="http://www.w3.org/2000/svg">
<g clip-path="url(#clip0_172_31)">
<path d="M27.0068 34.5908H83.9932C87.4998 34.5908 90.1697 37.2551 90.1699 40.7666V47.5879C90.1699 48.1243 89.9943 48.5204 89.7344 48.7803C89.4745 49.0399 89.079 49.2148 88.543 49.2148C88.0099 49.2148 87.6136 49.0399 87.3525 48.7793C87.0917 48.5188 86.915 48.1231 86.915 47.5879V40.7666C86.915 39.9357 86.6362 39.193 86.1006 38.6562C85.5647 38.1194 84.8222 37.8398 83.9932 37.8398H27.0068C26.177 37.8399 25.4348 38.1218 24.8984 38.6572C24.3621 39.1928 24.0801 39.934 24.0801 40.7617V81.7324C24.0801 82.5646 24.3612 83.3074 24.8984 83.8438C25.4355 84.3798 26.1781 84.6591 27.0068 84.6592H42.1748C46.3994 84.6592 49.6512 81.4072 49.6514 77.1777V69.7012H42.1748C41.8248 69.7011 41.5687 69.6138 41.3896 69.4834C41.2153 69.3564 41.0671 69.154 40.9863 68.8311L40.9688 68.7607L40.9355 68.6963C40.5556 67.9407 40.6232 67.3599 41.0391 66.9473L41.0576 66.9287L41.0752 66.9082L54.7285 50.9717L54.7539 50.9404C54.8923 50.7565 55.0714 50.6067 55.2773 50.5039C55.4834 50.4011 55.7111 50.3477 55.9414 50.3477C56.1716 50.3477 56.3985 50.4012 56.6045 50.5039C56.8105 50.6067 56.9904 50.7565 57.1289 50.9404L57.1406 50.9561L57.1543 50.9727L70.791 66.876C70.9799 67.137 71.096 67.4437 71.125 67.7646C71.154 68.0869 71.0945 68.4106 70.9541 68.7021C70.7647 69.0766 70.5497 69.3195 70.3232 69.4697C70.0996 69.618 69.8291 69.7011 69.4873 69.7012H62.0107V77.165C61.9923 78.1538 62.1733 79.1365 62.543 80.0537C62.9127 80.9708 63.4632 81.8044 64.1621 82.5039C64.861 83.2034 65.6945 83.7546 66.6113 84.125C67.5246 84.4939 68.5025 84.6743 69.4873 84.6582V84.6592H83.999C84.8303 84.6592 85.5727 84.3803 86.1084 83.8428C86.6438 83.3055 86.9209 82.5623 86.9209 81.7324V56.6973C86.921 56.1621 87.0975 55.7663 87.3584 55.5059C87.6195 55.2453 88.0159 55.0703 88.5488 55.0703C89.085 55.0704 89.4804 55.246 89.7402 55.5059C90 55.7657 90.1757 56.161 90.1758 56.6973V81.7324C90.1757 85.244 87.5057 87.9092 83.999 87.9092H69.4932C63.4836 87.9092 58.7668 83.1933 58.7666 77.1777V68.0791C58.7666 67.5393 58.9433 67.1436 59.2021 66.8848C59.4611 66.626 59.8549 66.4512 60.3887 66.4512H65.8857L64.9824 65.3818L56.3359 55.1426L55.8398 54.5537L55.3428 55.1426L46.6963 65.3818L45.7939 66.4512H51.2793C51.819 66.4512 52.214 66.6276 52.4727 66.8867C52.7315 67.146 52.9062 67.5416 52.9062 68.0791V77.1836C52.9205 78.5955 52.6527 79.9964 52.1191 81.3037C51.5855 82.6109 50.797 83.7992 49.7988 84.7979C48.8008 85.7964 47.6135 86.5859 46.3066 87.1201C44.9996 87.6544 43.5985 87.9227 42.1865 87.9092H27.0068C23.5004 87.909 20.8312 85.2439 20.8311 81.7324V40.7666C20.8312 37.2552 23.5004 34.591 27.0068 34.5908ZM30.4658 26.1025H80.5352C81.0702 26.1026 81.4661 26.2783 81.7266 26.5391C81.9872 26.8001 82.1621 27.1966 82.1621 27.7295C82.1621 28.2659 81.9865 28.662 81.7266 28.9219C81.4667 29.1816 81.0713 29.3574 80.5352 29.3574H30.4658C29.9294 29.3574 29.5333 29.1818 29.2734 28.9219C29.0136 28.662 28.8379 28.2658 28.8379 27.7295C28.8379 27.1966 29.0138 26.8001 29.2744 26.5391C29.5349 26.2783 29.9307 26.1025 30.4658 26.1025ZM37.292 17.4395H73.708C74.241 17.4395 74.6373 17.6144 74.8984 17.875C75.1593 18.1354 75.3359 18.5312 75.3359 19.0664C75.3359 19.5981 75.1604 19.9929 74.8994 20.2529C74.6382 20.5132 74.2411 20.6885 73.708 20.6885H37.292C36.7546 20.6884 36.359 20.5133 36.0996 20.2549C35.8404 19.9966 35.665 19.6027 35.665 19.0664C35.6651 18.5301 35.8408 18.1349 36.1006 17.875C36.3604 17.6152 36.7558 17.4395 37.292 17.4395Z" fill="#91FFAE" stroke="#0E0F0E" stroke-width="1.3"/>
</g>
<defs>
<clipPath id="clip0_172_31">
<rect width="81" height="81" fill="white" transform="translate(15 15)"/>
</clipPath>
</defs>
</svg>
