<svg width="112" height="112" viewBox="0 0 112 112" fill="none" xmlns="http://www.w3.org/2000/svg">
<path d="M19.25 43.75H92.75M35.5833 19.25V27.4167M76.4167 19.25V27.4167M31.5 56H39.6667M51.9167 56H60.0833M72.3333 56H80.5M31.5 68.25H39.6667M51.9167 68.25H60.0833M72.3333 68.25H80.5M31.5 80.5H39.6667M51.9167 80.5H60.0833M72.3333 80.5H80.5M32.3167 92.75H79.6833C84.2571 92.75 86.5442 92.75 88.291 91.8598C89.8276 91.0771 91.0771 89.8276 91.8598 88.291C92.75 86.5442 92.75 84.2571 92.75 79.6833V40.4833C92.75 35.9096 92.75 33.6227 91.8598 31.8757C91.0771 30.3391 89.8276 29.0897 88.291 28.3068C86.5442 27.4167 84.2571 27.4167 79.6833 27.4167H32.3167C27.7429 27.4167 25.456 27.4167 23.7091 28.3068C22.1724 29.0897 20.9231 30.3391 20.1401 31.8757C19.25 33.6227 19.25 35.9096 19.25 40.4833V79.6833C19.25 84.2571 19.25 86.5442 20.1401 88.291C20.9231 89.8276 22.1724 91.0771 23.7091 91.8598C25.456 92.75 27.7429 92.75 32.3167 92.75Z" stroke="#91FFAE" stroke-width="2" stroke-linecap="round"/>
</svg>
