<svg width="478" height="118" viewBox="0 0 478 118" fill="none" xmlns="http://www.w3.org/2000/svg">
<path fill-rule="evenodd" clip-rule="evenodd" d="M268.701 44.5286L277.949 35.2825C286.017 27.2384 286.017 14.1464 277.949 6.07132C276.039 4.14862 273.766 2.62459 271.262 1.58769C268.758 0.550793 266.074 0.021678 263.364 0.0310617C260.655 0.0269237 257.971 0.558433 255.468 1.59503C252.965 2.63163 250.692 4.15288 248.779 6.07132L239.533 15.3197L239.502 15.2888L239.485 15.3054L230.225 6.04038C228.315 4.11769 226.042 2.59366 223.538 1.55675C221.034 0.519854 218.35 -0.00926101 215.64 0.000122657C210.144 0.000122657 204.931 2.1611 201.055 6.04038C192.982 14.1131 192.982 27.2098 201.055 35.2516L210.301 44.5L201.055 53.7484C199.133 55.659 197.609 57.9325 196.572 60.4369C195.536 62.9414 195.007 65.6268 195.016 68.3373C195.016 73.835 197.176 79.0494 201.055 82.9263C202.965 84.849 205.238 86.373 207.741 87.4099C210.245 88.4468 212.93 88.9759 215.64 88.9666C221.136 88.9666 226.349 86.8056 230.225 82.9263L239.485 73.6612L248.779 82.9596C250.689 84.8823 252.962 86.4063 255.465 87.4432C257.969 88.4801 260.654 89.0093 263.364 88.9999C266.073 89.004 268.756 88.4725 271.259 87.4359C273.762 86.3993 276.036 84.8781 277.949 82.9596C279.871 81.049 281.395 78.7755 282.431 76.2711C283.468 73.7667 283.997 71.0812 283.988 68.3707C283.988 62.873 281.827 57.661 277.949 53.7817L268.701 44.5333V44.5286ZM252.655 9.91728C254.059 8.50935 255.729 7.394 257.567 6.6358C259.405 5.8776 261.375 5.4916 263.364 5.50013C267.401 5.50013 271.213 7.05661 274.073 9.91728C276.911 12.7597 278.504 16.6124 278.504 20.6293C278.504 24.6462 276.911 28.4989 274.073 31.3414L264.81 40.6041L243.392 19.1847L252.657 9.91966L252.655 9.91728ZM239.499 65.8908L218.114 44.5L239.499 23.1092L260.885 44.5L239.499 65.8908ZM204.923 31.3414C199.016 25.4606 199.016 15.86 204.923 9.91728C206.328 8.50935 207.998 7.394 209.836 6.6358C211.674 5.8776 213.644 5.4916 215.633 5.50013C219.668 5.50013 223.482 7.05661 226.344 9.91728L235.604 19.18L214.191 40.6017L204.928 31.339L204.923 31.3414ZM226.344 79.0803C224.94 80.4886 223.27 81.6041 221.431 82.3623C219.592 83.1205 217.621 83.5063 215.633 83.4975C213.645 83.5044 211.675 83.1176 209.838 82.3595C208 81.6014 206.331 80.4869 204.926 79.0803C203.519 77.6749 202.404 76.0048 201.646 74.1662C200.887 72.3277 200.501 70.3572 200.507 68.3683C200.507 64.3296 202.066 60.5169 204.923 57.6562L214.219 48.3579L235.635 69.7772L226.344 79.0803ZM274.071 79.0803C272.666 80.4883 270.997 81.6036 269.158 82.3618C267.32 83.12 265.35 83.506 263.361 83.4975C261.373 83.5047 259.403 83.1181 257.565 82.36C255.727 81.6019 254.057 80.4872 252.652 79.0803L243.356 69.7843L264.775 48.365L274.066 57.6586C275.474 59.063 276.59 60.7329 277.349 62.5717C278.108 64.4104 278.494 66.3814 278.487 68.3707C278.494 70.3599 278.108 72.3309 277.349 74.1697C276.59 76.0084 275.474 77.6783 274.066 79.0827L274.071 79.0803Z" fill="#C34813"/>
<path d="M19.8848 38.4137L32.8434 57.175H25.757L16.3404 43.4079L6.89276 57.175H0L12.8964 38.5407L0.60467 20.6066H7.6958L16.4743 33.5441L25.4439 20.6066H32.2746L19.9207 38.4089H19.892L19.8848 38.4137ZM66.681 20.6066L80.6912 57.2061H74.4007L70.6651 47.0882H56.7147L52.9815 57.2061H46.7245L60.7371 20.6066H66.681ZM58.6649 41.6768H68.6575L63.6481 28.1303L58.6387 41.6768H58.6697H58.6649ZM104.154 43.535V57.1774H97.9613V20.6042H112.067C119.6 20.6042 124.548 24.5435 124.548 32.1007C124.548 39.6532 119.634 43.5613 112.067 43.5613H104.156L104.154 43.535ZM111.976 25.9557H104.187V38.1859H111.976C116.254 38.1859 118.453 35.6252 118.453 32.1031C118.453 28.5787 116.285 25.9868 111.976 25.9868V25.9557ZM157.3 57.8151C147.434 57.8151 140.51 49.8431 140.51 38.8932C140.51 27.9433 147.437 20 157.3 20C167.161 20 174.183 27.9409 174.183 38.8932C174.183 49.8455 167.161 57.8151 157.3 57.8151ZM157.3 25.5744C150.885 25.5744 146.703 31.1777 146.703 38.9268C146.703 46.6758 150.852 52.2814 157.3 52.2814C163.748 52.2814 167.929 46.6734 167.929 38.9268C167.929 31.1801 163.713 25.5744 157.3 25.5744ZM333.505 46.707C333.505 53.5594 328.747 57.175 321.151 57.175H307.201V20.6066H319.968C327.566 20.6066 332.322 24.0016 332.322 30.5663C332.322 34.5056 330.248 37.3539 327.569 38.313C331.017 39.435 333.505 42.8301 333.505 46.7046M319.906 35.9777C324.151 35.9777 326.386 34.3761 326.386 30.9187C326.386 27.459 324.12 25.9868 319.906 25.9868H313.205V36.0089H319.906V35.9777ZM313.171 51.8259H321.025C325.174 51.8259 327.44 49.7448 327.44 46.4457C327.44 43.1489 325.174 41.099 321.025 41.099H313.171V51.8259ZM368.168 20.6066L382.18 57.2061H375.892L372.159 47.0882H358.208L354.473 57.2061H348.216L362.228 20.6066H368.168ZM370.149 41.6768L365.135 28.1303L360.125 41.6768H370.149ZM428.847 57.175H424.091L405.449 30.5351V57.175H399.512V20.6066H405.354L422.942 45.9997V20.609H428.878V57.2061L428.847 57.175ZM455.178 36.5243L469.798 20.6114H477.46L460.988 38.1259L478 57.2109H470.146L455.176 40.4636V57.2109H448.983V20.6114H455.176V36.5243H455.178ZM195.399 117.767V104.005H204.003V105.791H197.469V109.982H203.552V111.764H197.469V115.979H204.08V117.765H195.397L195.399 117.767ZM214.443 107.618C214.417 107.32 214.325 107.032 214.171 106.775C214.018 106.518 213.809 106.3 213.558 106.137C213.039 105.785 212.386 105.609 211.599 105.609C211.036 105.609 210.55 105.699 210.141 105.878C209.762 106.027 209.43 106.278 209.182 106.602C208.961 106.903 208.844 107.268 208.848 107.642C208.848 107.97 208.923 108.253 209.075 108.491C209.228 108.729 209.432 108.929 209.687 109.09C209.94 109.246 210.212 109.377 210.504 109.486C210.792 109.588 211.071 109.672 211.341 109.738L212.679 110.088C213.117 110.197 213.567 110.342 214.029 110.524C214.488 110.708 214.914 110.95 215.306 111.251C215.702 111.551 216.019 111.923 216.257 112.366C216.505 112.808 216.629 113.338 216.627 113.955C216.627 114.735 216.426 115.428 216.025 116.034C215.627 116.637 215.049 117.114 214.292 117.465C213.537 117.815 212.623 117.99 211.551 117.988C210.475 117.988 209.634 117.825 208.884 117.499C208.177 117.211 207.566 116.729 207.12 116.108C206.687 115.472 206.444 114.725 206.417 113.955H208.494C208.535 114.452 208.696 114.868 208.974 115.202C209.261 115.528 209.626 115.773 210.069 115.936C210.515 116.094 211.004 116.172 211.534 116.171C212.12 116.171 212.642 116.079 213.097 115.895C213.556 115.706 213.917 115.447 214.18 115.116C214.443 114.781 214.582 114.365 214.574 113.938C214.574 113.531 214.458 113.198 214.225 112.939C213.967 112.658 213.65 112.437 213.298 112.291C212.869 112.111 212.427 111.962 211.976 111.845L210.356 111.402C209.255 111.103 208.383 110.661 207.741 110.076C207.102 109.494 206.784 108.723 206.785 107.762C206.785 106.969 207 106.277 207.43 105.686C207.859 105.094 208.439 104.635 209.17 104.307C209.952 103.966 210.797 103.796 211.649 103.809C212.569 103.809 213.398 103.974 214.111 104.298C214.824 104.625 215.387 105.075 215.798 105.647C216.207 106.217 216.422 106.872 216.443 107.614H214.445L214.443 107.618ZM218.613 105.791V104.003H229.232V105.791H224.947V117.767H222.882V105.791H218.613ZM232.282 117.895C232.106 117.898 231.932 117.865 231.77 117.798C231.607 117.731 231.46 117.632 231.338 117.506C231.21 117.383 231.108 117.235 231.04 117.07C230.972 116.906 230.938 116.73 230.941 116.552C230.938 116.376 230.972 116.201 231.041 116.039C231.109 115.877 231.21 115.73 231.338 115.61C231.46 115.483 231.607 115.382 231.769 115.314C231.931 115.246 232.106 115.212 232.282 115.214C232.647 115.214 232.961 115.346 233.226 115.61C233.489 115.87 233.62 116.184 233.62 116.552C233.615 116.786 233.551 117.015 233.434 117.218C233.317 117.421 233.151 117.591 232.951 117.712C232.749 117.833 232.517 117.896 232.282 117.895ZM241.428 117.767V116.264L246.07 111.438C246.565 110.913 246.974 110.455 247.296 110.062C247.587 109.716 247.833 109.334 248.027 108.925C248.186 108.565 248.267 108.184 248.268 107.781C248.277 107.364 248.165 106.954 247.946 106.599C247.731 106.265 247.428 105.997 247.071 105.825C246.679 105.639 246.25 105.545 245.816 105.549C245.326 105.549 244.897 105.651 244.53 105.854C244.17 106.047 243.876 106.344 243.687 106.707C243.48 107.105 243.378 107.549 243.39 107.997H241.416C241.416 107.16 241.608 106.427 241.992 105.799C242.375 105.17 242.901 104.684 243.572 104.341C244.244 103.991 245.006 103.817 245.857 103.818C246.71 103.818 247.477 103.991 248.135 104.336C248.796 104.675 249.311 105.141 249.681 105.734C250.052 106.322 250.238 106.985 250.238 107.724C250.238 108.234 250.142 108.733 249.951 109.222C249.705 109.812 249.373 110.361 248.966 110.853C248.496 111.447 247.844 112.171 247.009 113.025L244.28 115.888V115.991H250.458V117.772H241.423L241.428 117.767ZM257.965 117.998C256.905 117.994 256 117.715 255.25 117.158C254.499 116.602 253.926 115.793 253.529 114.73C253.132 113.667 252.933 112.388 252.931 110.893C252.93 109.399 253.129 108.124 253.529 107.069C253.93 106.01 254.506 105.203 255.257 104.65C256.01 104.097 256.913 103.82 257.965 103.818C259.015 103.818 259.915 104.098 260.665 104.657C261.416 105.212 261.989 106.018 262.386 107.076C262.788 108.13 262.988 109.402 262.988 110.893C262.988 112.387 262.792 113.677 262.393 114.739C261.995 115.799 261.421 116.609 260.67 117.168C259.921 117.723 259.019 117.998 257.965 117.998ZM257.965 116.199C258.892 116.199 259.618 115.745 260.142 114.835C260.666 113.926 260.93 112.611 260.933 110.891C260.933 109.748 260.813 108.781 260.572 107.99C260.333 107.199 259.991 106.599 259.547 106.192C259.122 105.785 258.555 105.561 257.967 105.568C257.043 105.568 256.317 106.026 255.79 106.942C255.262 107.857 254.996 109.171 254.992 110.886C254.992 112.034 255.109 113.005 255.345 113.799C255.586 114.587 255.928 115.186 256.371 115.595C256.805 115.994 257.376 116.211 257.965 116.199ZM270.761 104.003V117.767H268.684V106.089H268.605L265.319 108.239V106.252L268.744 104.008H270.758L270.761 104.003ZM279.439 117.957C278.519 117.957 277.697 117.798 276.972 117.48C276.296 117.196 275.707 116.739 275.263 116.154C274.846 115.579 274.612 114.891 274.592 114.181H276.695C276.714 114.569 276.856 114.941 277.101 115.243C277.353 115.537 277.68 115.765 278.081 115.926C278.483 116.087 278.929 116.167 279.42 116.166C279.96 116.166 280.439 116.072 280.856 115.885C281.248 115.716 281.588 115.445 281.841 115.099C282.078 114.754 282.201 114.343 282.194 113.924C282.202 113.481 282.074 113.047 281.827 112.68C281.581 112.313 281.227 112.031 280.815 111.872C280.303 111.658 279.75 111.555 279.195 111.57H278.038V109.874H279.195C279.705 109.874 280.152 109.783 280.536 109.599C280.903 109.431 281.218 109.167 281.446 108.834C281.668 108.488 281.781 108.083 281.771 107.671C281.784 107.281 281.684 106.896 281.485 106.561C281.295 106.239 281.016 105.98 280.682 105.815C280.303 105.629 279.885 105.537 279.463 105.547C278.994 105.547 278.6 105.631 278.21 105.794C277.843 105.943 277.519 106.184 277.271 106.494C277.028 106.801 276.892 107.18 276.884 107.573H274.879C274.901 106.83 275.119 106.176 275.534 105.612C275.969 105.037 276.541 104.581 277.197 104.286C277.884 103.966 278.648 103.807 279.489 103.809C280.328 103.809 281.126 103.981 281.767 104.326C282.407 104.667 282.903 105.122 283.253 105.693C283.605 106.262 283.78 106.884 283.777 107.558C283.801 108.263 283.578 108.953 283.147 109.509C282.716 110.066 282.104 110.453 281.418 110.603V110.711C282.329 110.85 283.035 111.214 283.535 111.802C284.039 112.39 284.289 113.118 284.286 113.984C284.289 114.743 284.079 115.423 283.655 116.022C283.236 116.623 282.662 117.096 281.934 117.441C281.147 117.794 280.293 117.969 279.432 117.952L279.439 117.957Z" fill="white"/>
</svg>
