<svg width="213" height="39" viewBox="0 0 213 39" fill="none" xmlns="http://www.w3.org/2000/svg">
<path d="M73.7212 9.44482H78.2166L72.0171 32.1686H63.1152L56.8711 9.44482H61.3666L66.4597 27.865H68.6661L73.7148 9.44482H73.7212Z" fill="white"/>
<path d="M86.2476 0.101562V4.41146H81.9365V0.101562H86.2476ZM81.9365 9.26723H86.2476V32.1306H81.9365V9.26723Z" fill="white"/>
<path d="M90.8823 32.1759V9.45214H95.3778V12.0165H95.4668C95.9247 11.3119 96.7449 10.7026 97.9212 10.1821C99.0975 9.6616 100.42 9.40137 101.889 9.40137C103.142 9.40137 104.401 9.52196 105.653 9.76951C106.906 10.0171 108.057 10.5312 109.093 11.3246C110.136 12.1181 110.975 13.2669 111.617 14.7586C112.26 16.2566 112.584 18.2687 112.584 20.8077V32.1695H107.993V21.125C107.993 19.6271 107.872 18.402 107.624 17.4372C107.376 16.4724 107.008 15.717 106.499 15.1712C105.997 14.6189 105.354 14.2381 104.572 14.0286C103.79 13.8128 102.881 13.7049 101.844 13.7049C100.808 13.7049 99.8224 13.8128 98.9958 14.0286C98.1692 14.2444 97.4825 14.6253 96.9293 15.1712C96.3761 15.7234 95.9564 16.447 95.664 17.3483C95.3715 18.2497 95.2252 19.3858 95.2252 20.7632V32.1695H90.8633L90.8823 32.1759Z" fill="white"/>
<path d="M122.6 27.8656H132.01V32.1755H118.289V13.7553H114.436V9.44543H118.289V0.0957031H122.606V9.44543H130.268V13.7553H122.606V27.8656H122.6Z" fill="white"/>
<path d="M144.448 9.58544C146.438 9.58544 148.129 9.92185 149.522 10.5947C150.914 11.2675 152.033 12.2069 152.873 13.4129C153.712 14.6189 154.297 16.0471 154.615 17.6974C154.933 19.3478 155.022 21.1314 154.869 23.061H138.026C138.026 24.1337 138.191 25.0033 138.528 25.6698C138.865 26.3426 139.323 26.8631 139.908 27.2249C140.486 27.5931 141.148 27.8406 141.879 27.9802C142.61 28.1199 143.392 28.1834 144.219 28.1834C144.797 28.1834 145.395 28.158 146.005 28.1135C146.616 28.0691 147.182 27.9612 147.703 27.7962C148.225 27.6311 148.689 27.3772 149.102 27.0408C149.515 26.7044 149.795 26.2474 149.954 25.6634H154.361C154.055 26.8885 153.585 27.9168 152.962 28.7546C152.332 29.5925 151.582 30.2717 150.711 30.7921C149.84 31.3126 148.86 31.6935 147.773 31.9347C146.686 32.1759 145.529 32.3028 144.308 32.3028C140.607 32.3028 137.905 31.338 136.207 29.4148C134.509 27.4915 133.657 24.6669 133.657 20.941C133.657 19.2906 133.88 17.7736 134.325 16.3835C134.77 14.9934 135.431 13.7938 136.321 12.7845C137.205 11.7753 138.324 10.9882 139.672 10.4233C141.02 9.85838 142.61 9.5791 144.448 9.5791V9.58544ZM150.596 19.024C150.565 18.6559 150.488 18.1608 150.367 17.5324C150.247 16.904 149.98 16.2947 149.566 15.698C149.153 15.1013 148.549 14.5936 147.754 14.1619C146.959 13.7367 145.872 13.5208 144.492 13.5208C143.239 13.5208 142.197 13.7049 141.37 14.0731C140.544 14.4412 139.876 14.8982 139.374 15.4505C138.871 16.0027 138.515 16.593 138.318 17.2404C138.121 17.8815 138.019 18.4782 138.019 19.024H150.596Z" fill="white"/>
<path d="M172.952 9.44482H177.27V32.1686H158.633V9.44482H162.944V27.865H172.952V9.44482Z" fill="white"/>
<path d="M212.33 9.44482V32.1686H208.013V13.7484H199.245V32.1686H194.927V13.7484H186.159V32.1686H181.848V9.44482H212.324H212.33Z" fill="white"/>
<path d="M41.9345 38.2622H31.2267V10.6891H27.7041V0H41.9345V38.2622Z" fill="url(#paint0_linear_1_1715)"/>
<path d="M41.9789 38.5098H11.776V10.8985H0V0.209473H22.4837V27.8207H41.9789V38.5098Z" fill="url(#paint1_linear_1_1715)"/>
<defs>
<linearGradient id="paint0_linear_1_1715" x1="34.8193" y1="2.9579" x2="34.8193" y2="36.5865" gradientUnits="userSpaceOnUse">
<stop stop-color="#FFAE00"/>
<stop offset="0.46" stop-color="#3CAE66"/>
<stop offset="1" stop-color="#009086"/>
</linearGradient>
<linearGradient id="paint1_linear_1_1715" x1="0" y1="19.3596" x2="41.9789" y2="19.3596" gradientUnits="userSpaceOnUse">
<stop stop-color="#3CAE66"/>
<stop offset="1" stop-color="#009086"/>
</linearGradient>
</defs>
</svg>
