<svg width="46" height="46" viewBox="0 0 46 46" fill="none" xmlns="http://www.w3.org/2000/svg">
<circle cx="22.5176" cy="22.5176" r="22" stroke="white" stroke-width="1.03529"/>
<path d="M10.5176 22.5176C10.5176 25.7002 11.7819 28.7524 14.0323 31.0029C16.2827 33.2533 19.335 34.5176 22.5176 34.5176C25.7002 34.5176 28.7524 33.2533 31.0029 31.0029C33.2533 28.7524 34.5176 25.7002 34.5176 22.5176C34.5176 19.335 33.2533 16.2827 31.0029 14.0323C28.7524 11.7819 25.7002 10.5176 22.5176 10.5176C19.335 10.5176 16.2827 11.7819 14.0323 14.0323C11.7819 16.2827 10.5176 19.335 10.5176 22.5176Z" stroke="white" stroke-linejoin="round"/>
<path d="M17.3745 22.5176C17.3745 19.335 17.9163 16.2827 18.8808 14.0323C19.8453 11.7819 21.1534 10.5176 22.5174 10.5176C23.8813 10.5176 25.1894 11.7819 26.1539 14.0323C27.1184 16.2827 27.6602 19.335 27.6602 22.5176C27.6602 25.7002 27.1184 28.7524 26.1539 31.0029C25.1894 33.2533 23.8813 34.5176 22.5174 34.5176C21.1534 34.5176 19.8453 33.2533 18.8808 31.0029C17.9163 28.7524 17.3745 25.7002 17.3745 22.5176Z" stroke="white" stroke-linejoin="round"/>
<path d="M11.3745 26.5176H33.6602M11.3745 18.5176H33.6602" stroke="white" stroke-linecap="round"/>
</svg>
