<svg width="39" height="39" viewBox="0 0 39 39" fill="none" xmlns="http://www.w3.org/2000/svg">
<path d="M19.0933 38.114H19.0094C8.52774 38.114 0 29.5837 0 19.0989V19.015C0 8.53025 8.52774 0 19.0094 0H19.0933C29.575 0 38.1027 8.53025 38.1027 19.015V19.0989C38.1027 29.5837 29.575 38.114 19.0933 38.114ZM19.0094 1.29012C9.23838 1.29012 1.28974 9.2411 1.28974 19.015V19.0989C1.28974 28.8729 9.23838 36.8238 19.0094 36.8238H19.0933C28.8643 36.8238 36.813 28.8729 36.813 19.0989V19.015C36.813 9.2411 28.8643 1.29012 19.0933 1.29012H19.0094Z" fill="white"/>
<path d="M28.2635 10.6037C26.5688 9.82577 24.7528 9.25296 22.853 8.92527C22.8182 8.91882 22.7834 8.93431 22.7666 8.96656C22.5332 9.38198 22.2739 9.92512 22.0934 10.3509C20.0504 10.0451 18.0178 10.0451 16.0161 10.3509C15.8343 9.91479 15.566 9.38198 15.3313 8.96656C15.3132 8.9356 15.2784 8.92011 15.2449 8.92527C13.3464 9.25296 11.5291 9.82577 9.83443 10.6037C9.82025 10.6102 9.80734 10.6205 9.79832 10.6347C6.35213 15.7848 5.40802 20.8086 5.87104 25.7704C5.87362 25.7949 5.88652 25.8181 5.90586 25.8323C8.17967 27.503 10.3826 28.517 12.5442 29.1892C12.579 29.1995 12.6151 29.1866 12.637 29.1582C13.1478 28.4603 13.6043 27.7236 13.9951 26.9482C14.0183 26.9031 13.9951 26.8489 13.9487 26.8308C13.2251 26.556 12.5377 26.2219 11.8748 25.8426C11.8219 25.8116 11.8181 25.7368 11.8658 25.7007C12.0051 25.5962 12.1443 25.4878 12.2772 25.3782C12.3017 25.3575 12.3352 25.3536 12.3636 25.3665C16.7139 27.3533 21.424 27.3533 25.7227 25.3665C25.7511 25.3523 25.7846 25.3575 25.8091 25.3769C25.942 25.4865 26.0812 25.5962 26.2218 25.7007C26.2695 25.7368 26.267 25.8116 26.2141 25.8426C25.5525 26.2296 24.8637 26.5573 24.1389 26.8308C24.0912 26.8489 24.0705 26.9031 24.0938 26.9495C24.4936 27.7236 24.9489 28.459 25.4506 29.1582C25.4712 29.1879 25.5086 29.2008 25.5434 29.1905C27.7153 28.5183 29.9182 27.5043 32.192 25.8336C32.2114 25.8194 32.2243 25.7962 32.2269 25.7729C32.7814 20.0371 31.2983 15.0546 28.297 10.6373C28.2893 10.6231 28.2777 10.6115 28.2622 10.605L28.2635 10.6037ZM14.6426 22.7489C13.3322 22.7489 12.254 21.5465 12.254 20.0693C12.254 18.5921 13.3128 17.3897 14.6426 17.3897C15.9723 17.3897 17.0531 18.6038 17.0311 20.0693C17.0311 21.5465 15.9723 22.7489 14.6426 22.7489ZM23.476 22.7489C22.1656 22.7489 21.0874 21.5465 21.0874 20.0693C21.0874 18.5921 22.1462 17.3897 23.476 17.3897C24.8057 17.3897 25.8865 18.6038 25.8646 20.0693C25.8646 21.5465 24.8173 22.7489 23.476 22.7489Z" fill="white"/>
</svg>
