<svg width="46" height="46" viewBox="0 0 46 46" fill="none" xmlns="http://www.w3.org/2000/svg">
<circle cx="22.5176" cy="22.5176" r="22" stroke="white" stroke-width="1.03529"/>
<path d="M26.5177 32.5444V29.6744C26.5552 29.1975 26.4907 28.7182 26.3287 28.2682C26.1666 27.8181 25.9106 27.4078 25.5777 27.0644C28.7177 26.7144 32.0177 25.5244 32.0177 20.0644C32.0174 18.6682 31.4803 17.3256 30.5177 16.3144C30.9735 15.0929 30.9413 13.7427 30.4277 12.5444C30.4277 12.5444 29.2477 12.1944 26.5177 14.0244C24.2255 13.4042 21.8098 13.4042 19.5177 14.0244C16.7877 12.1944 15.6077 12.5444 15.6077 12.5444C15.094 13.7427 15.0618 15.0929 15.5177 16.3144C14.5478 17.3331 14.0102 18.6878 14.0177 20.0944C14.0177 25.5144 17.3177 26.7044 20.4577 27.0944C20.1287 27.4343 19.8749 27.8398 19.713 28.2843C19.551 28.7288 19.4845 29.2024 19.5177 29.6744V32.5444" stroke="white" stroke-width="1.5" stroke-linecap="round" stroke-linejoin="round"/>
<path d="M19.5176 30.5444C16.5176 31.5174 14.0176 30.5444 12.5176 27.5444" stroke="white" stroke-width="1.5" stroke-linecap="round" stroke-linejoin="round"/>
</svg>
