<svg width="39" height="39" viewBox="0 0 39 39" fill="none" xmlns="http://www.w3.org/2000/svg">
<path d="M19.0933 38.114H19.0095C8.52775 38.114 0 29.5837 0 19.0989V19.015C0 8.53025 8.52775 0 19.0095 0H19.0933C29.575 0 38.1027 8.53025 38.1027 19.015V19.0989C38.1027 29.5837 29.575 38.114 19.0933 38.114ZM19.0095 1.29012C9.2384 1.29012 1.28974 9.2411 1.28974 19.015V19.0989C1.28974 28.8729 9.2384 36.8238 19.0095 36.8238H19.0933C28.8643 36.8238 36.813 28.8729 36.813 19.0989V19.015C36.813 9.2411 28.8643 1.29012 19.0933 1.29012H19.0095Z" fill="white"/>
<path d="M24.7475 8.13672H13.3565C10.2095 8.13672 7.64941 10.6976 7.64941 13.8455V24.2696C7.64941 27.4175 10.2095 29.9784 13.3565 29.9784H24.7475C27.8944 29.9784 30.4546 27.4175 30.4546 24.2696V13.8455C30.4546 10.6976 27.8944 8.13672 24.7475 8.13672ZM9.6627 13.8455C9.6627 11.8084 11.32 10.1506 13.3565 10.1506H24.7475C26.784 10.1506 28.4413 11.8084 28.4413 13.8455V24.2696C28.4413 26.3067 26.784 27.9645 24.7475 27.9645H13.3565C11.32 27.9645 9.6627 26.3067 9.6627 24.2696V13.8455Z" fill="white"/>
<path d="M19.0517 24.3663C21.9782 24.3663 24.3603 21.9848 24.3603 19.0562C24.3603 16.1276 21.9794 13.7461 19.0517 13.7461C16.124 13.7461 13.7432 16.1276 13.7432 19.0562C13.7432 21.9848 16.124 24.3663 19.0517 24.3663ZM19.0517 15.7612C20.869 15.7612 22.347 17.2397 22.347 19.0575C22.347 20.8753 20.869 22.3538 19.0517 22.3538C17.2345 22.3538 15.7564 20.8753 15.7564 19.0575C15.7564 17.2397 17.2345 15.7612 19.0517 15.7612Z" fill="white"/>
<path d="M24.8522 14.6046C25.6402 14.6046 26.2825 13.9635 26.2825 13.1739C26.2825 12.3844 25.6415 11.7432 24.8522 11.7432C24.0629 11.7432 23.4219 12.3844 23.4219 13.1739C23.4219 13.9635 24.0629 14.6046 24.8522 14.6046Z" fill="white"/>
</svg>
