<svg width="46" height="46" viewBox="0 0 46 46" fill="none" xmlns="http://www.w3.org/2000/svg">
<circle cx="22.5176" cy="22.5176" r="22" stroke="white" stroke-width="1.03529"/>
<path d="M21.2287 10.5176C20.6887 11.2676 20.2947 11.8076 19.9157 12.3656C19.7661 12.1853 19.5809 12.0379 19.3716 11.9325C19.1624 11.8272 18.9336 11.7663 18.6997 11.7536C17.1777 11.6576 17.2627 11.6636 17.1937 11.6636C16.7506 11.6665 16.3251 11.8374 16.0031 12.1418C15.6811 12.4462 15.4865 12.8614 15.4587 13.3036L15.3747 14.7066V14.7126C15.3489 15.1731 15.506 15.6252 15.8118 15.9705C16.1176 16.3158 16.5474 16.5265 17.0077 16.5566L18.0707 16.6216C17.9797 17.5216 18.1237 18.3626 18.4867 19.0856C17.1022 19.6641 15.848 20.5149 14.7987 21.5876C11.4497 24.9356 11.5177 29.1066 11.5177 33.1196L12.7877 31.7696C13.0507 32.737 13.4497 33.6622 13.9727 34.5176H15.5077C14.6632 33.3711 14.0932 32.0461 13.8417 30.6446L15.9717 28.3766L14.9627 31.5546C17.2097 29.9156 20.6627 26.8506 27.4827 28.8596C29.2857 29.3846 31.2057 28.8976 32.0647 27.3166C32.4967 29.4326 32.1227 32.4376 30.8687 34.5116H32.3257C33.1057 32.9526 33.5117 31.0786 33.5117 28.9946C33.5117 26.3576 32.3857 23.6886 30.4337 21.6746C28.7737 19.9646 27.0507 19.2246 26.0367 18.8986C26.2586 18.3795 26.3706 17.8201 26.3655 17.2556C26.3605 16.6911 26.2386 16.1338 26.0075 15.6187C25.7764 15.1037 25.441 14.6421 25.0227 14.2631C24.6043 13.8841 24.112 13.5959 23.5767 13.4166C22.5887 13.0836 22.0557 13.1116 21.8467 13.1116C21.8417 13.1066 21.6017 12.7196 22.3277 11.1656L21.2277 10.5176H21.2287ZM17.1987 12.9456C17.2217 12.9456 17.1037 12.9356 18.6247 13.0316C19.1577 13.0686 19.0457 13.6646 19.0407 13.7716C18.7562 14.2718 18.522 14.7991 18.3417 15.3456L17.0877 15.2716C16.9663 15.2628 16.8531 15.2068 16.7725 15.1156C16.6919 15.0244 16.6503 14.9051 16.6567 14.7836L16.7407 13.3786C16.7476 13.2615 16.7989 13.1515 16.8842 13.071C16.9696 12.9905 17.0814 12.9456 17.1987 12.9456ZM20.6587 13.5606C20.8617 14.0776 21.3687 14.4076 21.9217 14.3806C22.3167 14.3646 24.0847 14.5206 24.8207 16.0806C25.2097 16.9156 25.2837 18.3346 24.1737 19.3416L23.7267 18.7916C22.4307 17.4836 20.9077 18.5916 20.9077 19.7286C20.4155 19.4946 20.0022 19.122 19.7187 18.6566C18.6727 16.9096 19.9267 14.6976 20.6587 13.5606ZM17.4667 13.7046L17.4137 14.5406L18.2457 14.5956L18.2987 13.7596L17.4667 13.7046ZM22.5197 19.4866C22.5627 19.4889 22.6047 19.5008 22.6426 19.5214C22.6805 19.5419 22.7133 19.5707 22.7387 19.6056L25.6887 23.2536C25.9457 23.5696 25.4697 23.9666 25.2087 23.6446L24.9157 23.2816L23.8687 24.1366C23.8199 24.1767 23.7572 24.1959 23.6943 24.1901C23.6314 24.1843 23.5733 24.1539 23.5327 24.1056L23.0587 23.5216C23.0186 23.4728 22.9994 23.4101 23.0052 23.3472C23.011 23.2843 23.0413 23.2262 23.0897 23.1856L24.1427 22.3226L23.7147 21.7946L23.1977 22.2246C22.9417 22.4336 22.5557 21.9246 22.8007 21.7206L23.3147 21.2966L22.2577 19.9966C22.0617 19.7596 22.2877 19.4766 22.5197 19.4866ZM25.3227 20.0016C25.7387 20.1316 26.1453 20.2852 26.5427 20.4626C28.1857 21.1966 29.5567 22.4296 30.4587 23.6996C31.2747 24.8566 31.4147 26.0406 30.8247 26.8746C30.2427 27.7056 29.0947 27.9896 27.8357 27.6196C23.9187 26.4626 20.3887 26.7246 17.3047 28.3906L18.8987 23.3766C12.6077 30.0746 13.2547 29.3896 12.8167 29.8556C12.8757 28.2856 13.0817 26.6396 13.8767 25.0216C14.5867 23.5856 16.3067 21.2436 19.2827 20.1346C20.1357 20.9496 21.1767 21.2116 21.5607 21.2816C21.4477 21.5457 21.4109 21.8362 21.4544 22.1202C21.4978 22.4042 21.6199 22.6703 21.8067 22.8886C21.7284 23.1315 21.7117 23.3902 21.7581 23.6412C21.8045 23.8922 21.9126 24.1277 22.0727 24.3266L22.5467 24.9106C22.8347 25.2676 23.2697 25.4736 23.7267 25.4726C24.3727 25.4726 24.7567 25.0666 24.9117 24.9426C25.7597 25.2526 26.3897 24.7386 26.4587 24.6796C26.7849 24.411 26.9916 24.0244 27.0338 23.604C27.0759 23.1836 26.9501 22.7635 26.6837 22.4356L24.9807 20.3336C25.102 20.2316 25.216 20.1209 25.3227 20.0016ZM25.9177 30.9216C25.7926 30.9217 25.6688 30.9465 25.5533 30.9947C25.4378 31.0428 25.333 31.1132 25.2448 31.2019C25.1566 31.2907 25.0868 31.396 25.0395 31.5117C24.9921 31.6275 24.968 31.7515 24.9687 31.8766C24.9687 32.1285 25.0688 32.3702 25.2469 32.5483C25.4251 32.7265 25.6667 32.8266 25.9187 32.8266C26.1706 32.8266 26.4123 32.7265 26.5904 32.5483C26.7686 32.3702 26.8687 32.1285 26.8687 31.8766C26.8684 31.6242 26.7684 31.3822 26.5904 31.2033C26.4125 31.0244 26.17 30.9232 25.9177 30.9216ZM20.0177 30.9276C19.8927 30.9276 19.7689 30.9522 19.6534 31.0002C19.538 31.0481 19.4331 31.1184 19.3449 31.2069C19.2566 31.2954 19.1867 31.4005 19.1391 31.5161C19.0916 31.6317 19.0673 31.7556 19.0677 31.8806C19.0677 32.4076 19.4927 32.8356 20.0177 32.8356C20.5427 32.8356 20.9677 32.4076 20.9677 31.8806C20.9677 31.6283 20.8677 31.3864 20.6896 31.2078C20.5115 31.0291 20.2699 30.9284 20.0177 30.9276Z" fill="white"/>
</svg>
