<svg width="39" height="39" viewBox="0 0 39 39" fill="none" xmlns="http://www.w3.org/2000/svg">
<path d="M19.0933 38.114H19.0095C8.52777 38.114 0 29.5837 0 19.0989V19.0151C0 8.53028 8.52777 0 19.0095 0H19.0933C29.575 0 38.1028 8.53028 38.1028 19.0151V19.0989C38.1028 29.5837 29.575 38.114 19.0933 38.114ZM19.0095 1.29012C9.23842 1.29012 1.28974 9.24114 1.28974 19.0151V19.0989C1.28974 28.8729 9.23842 36.8239 19.0095 36.8239H19.0933C28.8644 36.8239 36.813 28.8729 36.813 19.0989V19.0151C36.813 9.24114 28.8644 1.29012 19.0933 1.29012H19.0095Z" fill="white"/>
<path d="M9.42386 12.8841C8.93892 12.4338 8.69775 11.8765 8.69775 11.2134C8.69775 10.5502 8.94021 9.96838 9.42386 9.51684C9.9088 9.06659 10.533 8.84082 11.2979 8.84082C12.0627 8.84082 12.6624 9.06659 13.1461 9.51684C13.631 9.96709 13.8722 10.5335 13.8722 11.2134C13.8722 11.8933 13.6297 12.4338 13.1461 12.8841C12.6611 13.3343 12.0459 13.5601 11.2979 13.5601C10.5498 13.5601 9.9088 13.3343 9.42386 12.8841ZM13.4646 15.4669V29.2712H9.10401V15.4669H13.4646Z" fill="white"/>
<path d="M27.9804 16.8304C28.9309 17.8625 29.4056 19.279 29.4056 21.0826V29.0272H25.2642V21.6425C25.2642 20.733 25.0282 20.026 24.5575 19.5229C24.0867 19.0197 23.4522 18.7668 22.6577 18.7668C21.8632 18.7668 21.2286 19.0184 20.7579 19.5229C20.2871 20.026 20.0511 20.733 20.0511 21.6425V29.0272H15.8853V15.428H20.0511V17.2316C20.4728 16.6304 21.0416 16.1556 21.7561 15.806C22.4707 15.4564 23.2742 15.2822 24.168 15.2822C25.7595 15.2822 27.0311 15.7983 27.9804 16.8304Z" fill="white"/>
</svg>
