<svg width="39" height="39" viewBox="0 0 39 39" fill="none" xmlns="http://www.w3.org/2000/svg">
<path d="M19.0933 38.114H19.0095C8.52775 38.114 0 29.5837 0 19.0989V19.015C0 8.53025 8.52775 0 19.0095 0H19.0933C29.575 0 38.1027 8.53025 38.1027 19.015V19.0989C38.1027 29.5837 29.575 38.114 19.0933 38.114ZM19.0095 1.29012C9.2384 1.29012 1.28974 9.2411 1.28974 19.015V19.0989C1.28974 28.8729 9.2384 36.8238 19.0095 36.8238H19.0933C28.8643 36.8238 36.813 28.8729 36.813 19.0989V19.015C36.813 9.2411 28.8643 1.29012 19.0933 1.29012H19.0095Z" fill="white"/>
<path d="M28.3142 13.3085C28.2647 12.827 28.1054 12.392 27.7976 12.0117C27.5255 11.6752 27.1765 11.4345 26.8467 11.1636C26.6819 11.0296 26.2449 10.6657 26.1899 10.4605C26.124 10.2116 26.2257 9.95716 26.4538 9.87509C26.7973 9.76019 27.3716 9.76292 27.7041 9.78481C27.9872 9.8067 28.2785 9.70821 28.2895 9.59331C28.3005 9.47841 28.1328 9.30879 27.9102 9.25681C27.7344 9.21577 27.4651 9.15285 27.3029 9.04616C27.0144 8.85192 26.7203 8.49627 26.3191 8.41694C25.7475 8.30477 25.349 8.51816 25.1622 9.00786C24.8654 9.70821 25.0577 10.6055 25.6816 11.2621C25.9619 11.5576 26.2889 11.812 26.6022 12.0774C26.833 12.2743 27.0364 12.4905 27.2315 12.7312C27.7536 13.3796 27.2012 14.5696 27.0693 14.7064C26.6077 15.1824 26.2064 15.27 25.4095 15.2372C24.6263 15.2043 22.5955 14.1593 21.521 14.1264C18.8608 14.0444 17.0141 15.2673 16.3903 15.5846C15.456 16.0606 14.1259 16.0907 14.0847 16.1044C13.4829 16.1509 12.2352 16.1974 11.6169 16.4108C10.7458 16.6515 10.2759 17.0482 9.95708 17.9346C9.85815 18.3176 9.83892 18.6651 9.97907 18.8757C10.2841 19.3353 11.1058 19.7183 11.4795 19.929C11.6719 20.0384 12.0511 19.9016 12.1253 19.8496C12.543 19.5678 12.9113 19.3463 13.4059 19.2751C13.5103 19.2587 14.2084 19.1356 14.5601 19.3928C14.8157 19.5788 15.0355 19.691 15.3241 19.8223C15.8517 20.0603 17.0141 20.3612 17.0361 20.3667C17.1928 20.4077 17.3934 20.4871 17.3934 20.6266C17.3934 20.8236 15.5467 22.361 15.445 22.3993C14.9806 22.5881 14.7113 22.8918 14.6261 23.3295C14.5986 23.4718 14.5354 23.6195 14.4557 23.7371C14.1561 24.1694 12.8288 26.0461 12.4771 26.5604C12.3094 26.8012 12.1363 26.9215 11.8972 26.9598C11.5537 27.0146 11.2954 27.0228 11.1497 27.2662C11.0591 27.4222 11.1168 27.7259 11.1772 27.9228C11.2459 28.1472 11.0591 28.4262 11.0453 28.459C10.8804 28.7791 10.8117 29.0855 10.8365 29.3947C10.8447 29.5205 10.853 29.8132 11.0618 29.8214C11.2707 29.8324 11.3256 29.6983 11.3504 29.6491C11.3806 29.5889 11.496 29.3399 11.529 29.2798C11.6636 29.0308 12.1775 28.4946 12.2352 28.4317C12.4194 28.2292 15.1674 24.4621 15.1674 24.4621C15.3186 24.2651 15.4752 24.0627 15.7308 23.9642C16.0853 23.8274 16.3216 23.5456 16.3903 23.1736C16.4068 23.0915 17.5033 22.2544 17.9705 21.9014C18.1408 21.7729 19.1741 21.3598 19.1906 21.3652C19.1906 21.3734 18.2453 22.7906 17.9512 23.5429C17.9045 23.6633 17.8276 24.0736 17.9128 24.2815C18.0447 24.6016 18.3277 24.7411 18.6492 24.6454C18.7482 24.6153 18.8361 24.5661 18.9213 24.5196C18.9598 24.4977 18.9982 24.4785 19.0367 24.4594C19.0752 24.4402 19.1109 24.4211 19.1494 24.4019C19.2373 24.3554 19.3225 24.3116 19.4077 24.2843C19.7237 24.1803 20.0425 24.0818 20.3613 23.9833L21.0071 23.7836C21.4578 23.6441 21.9085 23.5046 22.3591 23.3678C22.4581 23.3377 22.5542 23.3021 22.6779 23.3049C22.7466 23.3049 22.8208 23.3322 22.8455 23.4335C22.8455 23.4389 22.8978 23.7453 23.0874 23.8684C23.1836 23.9314 23.3897 23.9806 23.5436 23.9751C23.6782 23.9697 23.8486 24.008 23.9365 24.0846L24.0492 24.1803C24.1316 24.2487 24.2333 24.287 24.302 24.3062C24.3735 24.3253 24.5054 24.3253 24.5823 24.246C24.6648 24.1584 24.6345 24.0162 24.6235 23.9724C24.6071 23.9122 24.5741 23.8657 24.5493 23.8247L24.4806 23.718C24.4147 23.614 24.3515 23.5101 24.2828 23.4061C24.0932 23.1188 23.9063 22.8343 23.7139 22.5498C23.5133 22.2544 23.2028 22.1367 22.7961 22.1996C22.6394 22.2243 19.2016 23.2857 19.1769 23.2912C19.361 22.9547 20.463 21.4391 20.7708 21.2476C20.9988 21.1135 21.095 20.985 21.51 20.9138C22.3207 20.7771 24.0794 20.3722 24.5164 20.0575C25.3655 19.4447 25.4342 18.0522 25.4205 17.7732C25.404 17.4942 25.4947 17.3026 25.7393 17.1741C25.8602 17.1111 27.1683 16.3916 27.8086 15.3302C28.1933 14.7092 28.3912 14.0444 28.3142 13.3085Z" fill="white"/>
</svg>
