<svg width="39" height="39" viewBox="0 0 39 39" fill="none" xmlns="http://www.w3.org/2000/svg">
<path d="M19.0933 38.114H19.0095C8.52775 38.114 0 29.5837 0 19.0989V19.0151C0 8.53026 8.52775 0 19.0095 0H19.0933C29.575 0 38.1027 8.53026 38.1027 19.0151V19.0989C38.1027 29.5837 29.575 38.114 19.0933 38.114ZM19.0095 1.29012C9.2384 1.29012 1.28974 9.24112 1.28974 19.0151V19.0989C1.28974 28.8728 9.2384 36.8238 19.0095 36.8238H19.0933C28.8643 36.8238 36.813 28.8728 36.813 19.0989V19.0151C36.813 9.24112 28.8643 1.29012 19.0933 1.29012H19.0095Z" fill="white"/>
<path d="M8.11099 8.98145L16.6 20.3345L8.05811 29.5653H9.98111L17.4603 21.484L23.5027 29.5653H30.0456L21.0793 17.5736L29.0305 8.98145H27.1075L20.2203 16.4241L14.6551 8.98145H8.11226H8.11099ZM10.9381 10.398H13.9432L27.2159 28.1487H24.2108L10.9381 10.398Z" fill="white"/>
</svg>
